<?xml version="1.0" encoding="UTF-8" standalone="no"?>
<!DOCTYPE svg PUBLIC "-//W3C//DTD SVG 1.1//EN" "http://www.w3.org/Graphics/SVG/1.1/DTD/svg11.dtd">
<svg width="100%" height="100%" viewBox="0 0 2026 2014" version="1.1" xmlns="http://www.w3.org/2000/svg" xmlns:xlink="http://www.w3.org/1999/xlink" xml:space="preserve" xmlns:serif="http://www.serif.com/" style="fill-rule:evenodd;clip-rule:evenodd;stroke-miterlimit:10;">
    <path d="M418.336,916.372C418.8,931.266 417.759,945.921 416.537,960.384C415.262,974.845 413.872,989.12 412.36,1003.21C411.611,1010.25 410.84,1017.27 410.299,1024.29C409.823,1031.27 409.528,1038.37 409.435,1045.46C409.379,1052.56 409.495,1059.67 409.791,1066.79C410.114,1073.9 410.625,1081.02 411.236,1088.14C411.886,1095.26 412.674,1102.38 413.6,1109.49C414.552,1116.6 415.634,1123.7 416.818,1130.8C418.009,1137.89 419.302,1144.98 420.698,1152.05C422.105,1159.12 423.629,1166.18 425.178,1173.24C428.311,1187.35 431.794,1201.41 435.346,1215.48C438.924,1229.54 442.732,1243.55 446.422,1257.61L443.767,1258.45C438.695,1244.82 433.824,1231.12 429.074,1217.35C424.306,1203.59 419.838,1189.71 415.651,1175.71C411.489,1161.71 407.711,1147.57 404.359,1133.28C402.718,1126.13 401.211,1118.94 399.814,1111.72C398.447,1104.49 397.216,1097.23 396.126,1089.93C395.061,1082.62 394.213,1075.28 393.495,1067.91C392.819,1060.54 392.328,1053.14 392.018,1045.71C391.748,1038.28 391.659,1030.86 391.872,1023.34C392.102,1015.85 392.645,1008.39 393.537,1001.01C394.475,993.634 395.855,986.353 397.469,979.151C399.14,971.961 401.036,964.855 403.134,957.819C407.388,943.757 412.302,929.984 418.336,916.372" style="fill-rule:nonzero;fill:white;"/>
    <path d="M648.923,1494.1C648.983,1493.96 648.998,1493.79 648.995,1493.6C649.009,1493.42 648.982,1493.2 648.953,1492.99C648.932,1492.58 648.768,1492.04 648.579,1491.45C648.355,1490.84 648.111,1490.19 647.982,1489.64C647.861,1489.1 647.886,1488.69 648.083,1488.46C648.882,1487.53 649.734,1486.66 650.59,1485.8C652.302,1484.08 654.148,1482.52 656.027,1481.03C659.802,1478.07 663.834,1475.6 667.904,1473.39C669.939,1472.28 671.98,1471.25 674.053,1470.28L677.2,1468.83C678.252,1468.35 679.319,1467.93 680.378,1467.48C684.624,1465.72 688.907,1464.13 693.219,1462.69C697.523,1461.2 701.855,1459.87 706.191,1458.57C708.374,1457.98 710.473,1457.05 712.87,1457.33C715.195,1457.33 717.523,1457.4 719.841,1457.49C721.004,1457.54 722.154,1457.56 723.306,1457.6C724.457,1457.63 725.612,1457.7 726.752,1457.71C729.037,1457.75 731.308,1457.77 733.563,1457.75C738.077,1457.72 742.546,1457.65 746.948,1457.21C742.609,1458.08 738.362,1459.48 734.186,1461.07C730.009,1462.65 725.93,1464.59 721.948,1466.73C717.938,1468.77 714.192,1471.54 709.878,1472.07C707.778,1472.58 705.703,1473.14 703.625,1473.71C701.566,1474.33 699.491,1474.91 697.454,1475.57C693.359,1476.86 689.334,1478.29 685.386,1479.85C683.406,1480.62 681.465,1481.44 679.524,1482.26C677.571,1483.11 675.628,1484 673.713,1484.87C669.91,1486.67 666.221,1488.55 662.757,1490.66C661.017,1491.71 659.338,1492.83 657.729,1494.02C656.925,1494.62 656.128,1495.22 655.37,1495.87C655.175,1496.02 654.809,1496 654.295,1495.85C653.771,1495.69 653.138,1495.43 652.545,1495.23C651.98,1495.05 651.44,1494.91 651.044,1494.91C650.826,1494.89 650.612,1494.88 650.438,1494.9C650.247,1494.91 650.074,1494.94 649.946,1495.01L648.923,1494.1Z" style="fill-rule:nonzero;fill:white;"/>
    <path d="M840.282,1585.94C853.057,1582.46 865.989,1581.01 878.933,1580.22C885.408,1579.9 891.886,1579.63 898.365,1579.38L917.804,1578.73C943.727,1577.95 969.666,1577.73 995.596,1578.08C1021.52,1578.47 1047.45,1579.36 1073.33,1580.88L1092.74,1582.1L1112.14,1583.49C1125.07,1584.4 1137.96,1586.06 1150.56,1590.96C1147.26,1591.8 1143.98,1592.27 1140.71,1592.64C1137.44,1593.01 1134.19,1593.23 1130.94,1593.35C1124.45,1593.63 1117.99,1593.42 1111.55,1593.05L1092.19,1592.19L1072.84,1591.44C1047.03,1590.54 1021.21,1589.76 995.396,1589.22C969.58,1588.65 943.759,1588.26 917.932,1588.18L898.563,1588.23L879.193,1588.43C872.736,1588.48 866.273,1588.38 859.792,1587.99C853.312,1587.63 846.822,1587.11 840.282,1585.94" style="fill-rule:nonzero;fill:white;"/>
    <g>
        <path d="M309.888,589.44C299.823,613.738 271.966,625.277 247.667,615.212C223.369,605.148 211.83,577.291 221.895,552.993C231.959,528.694 259.816,517.155 284.115,527.22C308.413,537.285 319.952,565.142 309.887,589.44L309.888,589.44ZM237.634,763.877C227.569,788.175 199.713,799.714 175.415,789.649C151.117,779.585 139.577,751.728 149.642,727.429C159.706,703.131 187.564,691.592 211.862,701.657C236.16,711.722 247.7,739.578 237.634,763.877ZM595.622,209.346C619.92,199.281 647.776,210.82 657.842,235.119C667.906,259.417 656.367,287.274 632.069,297.338C607.771,307.403 579.913,295.865 569.849,271.566C559.785,247.268 571.324,219.411 595.622,209.346ZM770.059,137.092C794.356,127.027 822.213,138.566 832.278,162.864C842.343,187.163 830.804,215.02 806.506,225.085C782.208,235.149 754.351,223.61 744.285,199.312C734.221,175.014 745.761,147.157 770.059,137.092ZM1223.82,163.071C1233.89,138.773 1261.74,127.234 1286.04,137.298C1310.34,147.363 1321.88,175.22 1311.81,199.519C1301.75,223.817 1273.89,235.356 1249.59,225.291C1225.29,215.226 1213.76,187.369 1223.82,163.071L1223.82,163.071ZM1398.26,235.325C1408.33,211.026 1436.18,199.488 1460.48,209.553C1484.78,219.617 1496.32,247.474 1486.25,271.773C1476.19,296.071 1448.33,307.609 1424.03,297.545C1399.73,287.481 1388.19,259.624 1398.26,235.325ZM1726.33,613.301C1720.52,590.703 1732.07,566.692 1754.24,557.506C1778.54,547.441 1806.4,558.98 1816.46,583.278C1826.53,607.577 1814.99,635.433 1790.69,645.498C1783.48,648.486 1775.95,649.57 1768.67,648.982M1826.5,731.942C1850.8,721.877 1878.65,733.417 1888.72,757.715C1898.78,782.013 1887.24,809.87 1862.95,819.935C1838.65,830 1810.79,818.461 1800.73,794.163C1790.66,769.864 1802.2,742.007 1826.5,731.942ZM1772.47,926.126L2016.49,848.401L1842.68,428.808L1627.82,544.69L1497.36,410.838L1614.95,183.333L1195.36,9.532L1125.36,243.409L938.471,253.342L860.745,9.325L441.153,183.127L557.036,397.996L446.984,495.106M415.883,511.807L195.678,398.523L21.877,818.116L255.754,888.11L254.561,980.841M652.383,463.463C751.964,396.188 872.009,356.905 1001.23,356.905C1049.86,356.905 1097.19,362.468 1142.62,372.993" style="fill:none;fill-rule:nonzero;stroke:url(#_Linear1);stroke-width:12px;"/>
        <path d="M254.558,980.842L253.346,1075L253.008,1075.09" style="fill:white;fill-rule:nonzero;stroke:url(#_Linear2);stroke-width:12px;"/>
        <path d="M1876.17,1273.7C1866.11,1298 1838.25,1309.54 1813.95,1299.47C1789.65,1289.41 1778.11,1261.55 1788.18,1237.25C1798.24,1212.95 1826.1,1201.41 1850.4,1211.48C1874.7,1221.55 1886.24,1249.4 1876.17,1273.7ZM1803.92,1448.14C1793.85,1472.43 1765.99,1483.97 1741.7,1473.91C1717.4,1463.85 1705.86,1435.99 1715.92,1411.69C1725.99,1387.39 1753.85,1375.85 1778.14,1385.92C1802.44,1395.98 1813.98,1423.84 1803.92,1448.14ZM1469,1615.83L1468.78,1615.47L1602.63,1485.02L1830.14,1602.61L2003.94,1183.01L1781.85,1115.8" style="fill:none;fill-rule:nonzero;stroke:url(#_Linear3);stroke-width:12px;"/>
        <path d="M377.744,1004.79C379.045,1039.22 383.138,1072.94 389.799,1105.73" style="fill:none;fill-rule:nonzero;stroke:url(#_Linear4);stroke-width:12px;"/>
        <path d="M1393.74,1716.13C1418.04,1706.07 1445.89,1717.6 1455.96,1741.9C1466.02,1766.2 1454.49,1794.06 1430.19,1804.12C1405.89,1814.19 1378.03,1802.65 1367.97,1778.35C1357.9,1754.05 1369.44,1726.19 1393.74,1716.13ZM1255.75,1876.38C1231.45,1886.44 1203.6,1874.9 1193.53,1850.61C1183.47,1826.31 1195.01,1798.45 1219.3,1788.38C1243.6,1778.32 1271.46,1789.86 1281.52,1814.16C1291.59,1838.45 1280.05,1866.31 1255.75,1876.38ZM801.988,1838.06C791.923,1862.36 764.066,1873.9 739.768,1863.83C715.47,1853.77 703.931,1825.91 713.995,1801.61C724.06,1777.31 751.917,1765.78 776.216,1775.84C800.514,1785.9 812.053,1813.76 801.988,1838.06ZM627.551,1765.81C617.486,1790.1 589.63,1801.64 565.331,1791.58C541.033,1781.51 529.494,1753.66 539.559,1729.36C549.623,1705.06 577.48,1693.52 601.779,1703.59C626.077,1713.65 637.616,1741.51 627.551,1765.81ZM271.567,1443.62C247.268,1453.69 219.411,1442.15 209.346,1417.85C199.282,1393.55 210.821,1365.7 235.119,1355.63C259.417,1345.57 287.274,1357.11 297.339,1381.4C307.404,1405.7 295.865,1433.56 271.567,1443.62ZM199.312,1269.19C175.014,1279.25 147.157,1267.71 137.093,1243.41C127.028,1219.12 138.566,1191.26 162.865,1181.19C187.163,1171.13 215.02,1182.67 225.085,1206.97C235.15,1231.27 223.611,1259.12 199.312,1269.19ZM253.005,1075.09L9.325,1152.73L183.127,1572.32L397.996,1456.44L528.448,1590.29L410.861,1817.8L830.454,1991.6L900.449,1757.72L1087.34,1760.13L1165.06,2004.14L1584.66,1830.34L1469,1615.83M1324.39,1524.67C1230.13,1581.86 1119.52,1604.78 1001.23,1604.78" style="fill:none;fill-rule:nonzero;stroke:url(#_Linear5);stroke-width:12px;"/>
        <g transform="matrix(1.0005,-0.00223073,0.00224459,1.00671,-3.61648,-8.5692)">
            <path d="M1001.23,1604.78C911.626,1608.6 503.854,1565.94 390.566,1106.95" style="fill:none;stroke:url(#_Linear6);stroke-width:12px;"/>
        </g>
    </g>
    <g id="Otter_Helmet">
        <path d="M1479.45,788.938C1488.77,798.746 1496.88,809.813 1503.84,821.546C1507.36,827.396 1510.56,833.437 1513.57,839.566C1516.59,845.69 1519.38,851.928 1521.99,858.234C1524.58,864.542 1527.06,870.895 1529.39,877.292C1531.7,883.697 1533.89,890.16 1535.94,896.695C1540.05,909.754 1543.41,923.183 1545.5,936.91C1547.73,950.606 1548.6,964.473 1548.7,978.277C1548.69,981.727 1548.77,985.187 1548.58,988.625C1548.44,992.065 1548.38,995.519 1548.12,998.945C1547.71,1005.81 1547.17,1012.66 1546.4,1019.48C1545.64,1026.29 1544.73,1033.07 1543.74,1039.83C1542.7,1046.58 1541.53,1053.29 1540.32,1059.98C1537.81,1073.35 1535.03,1086.62 1531.92,1099.76L1518.18,1097.06C1520.28,1083.72 1522.68,1070.5 1524.81,1057.27L1526.4,1047.37L1527.88,1037.47C1528.85,1030.87 1529.74,1024.28 1530.49,1017.68C1533.59,991.319 1534.79,964.845 1531.97,938.721C1529.22,912.647 1521.97,886.714 1513.99,861.187C1505.76,835.796 1495.22,810.989 1479.45,788.938" style="fill-rule:nonzero;fill:white;"/>
        <path d="M976.52,1338.87C1103.98,1383.78 1243.52,1393.87 1376.11,1367.77C1406.63,1361.77 1457.55,1338.92 1479.45,1316.84C1558.14,1237.47 1551.61,1180.42 1533.19,1133.78C1527.19,1118.59 1527.86,1101.56 1525.19,1085.45" style="fill:none;fill-rule:nonzero;stroke:white;stroke-width:14px;"/>
        <path d="M932.185,633.981C972.823,615.7 1015.46,601.785 1059.13,592.417C1070.03,590.049 1081.05,588.039 1092.04,586.247C1103.03,584.444 1114.1,582.958 1125.22,581.754C1130.77,581.102 1136.36,580.657 1141.94,580.159C1147.54,579.779 1153.13,579.356 1158.75,579.161C1161.56,579.026 1164.36,578.905 1167.18,578.878C1170,578.835 1172.81,578.745 1175.63,578.767L1184.08,578.885C1186.9,578.916 1189.73,579.106 1192.55,579.209C1215.11,580.25 1237.74,583.58 1259.65,589.911C1281.58,596.312 1302.09,605.756 1322,615.497C1331.97,620.39 1341.89,625.45 1351.67,630.819C1361.43,636.218 1370.99,642.042 1380.21,648.388C1389.43,654.748 1398.29,661.65 1406.6,669.161C1414.89,676.694 1422.67,684.787 1429.39,693.716C1420.16,687.434 1411.05,681.322 1401.76,675.559C1392.49,669.772 1383.1,664.282 1373.61,658.987C1364.12,653.679 1354.52,648.585 1344.84,643.61C1335.17,638.603 1325.36,633.831 1315.44,629.231C1295.59,620.026 1275.66,611.414 1255.1,605.903C1234.59,600.222 1213.27,597.292 1191.81,596.537C1181.08,596.088 1170.29,596.273 1159.51,596.716C1154.11,596.904 1148.71,597.318 1143.32,597.686C1137.92,598.173 1132.52,598.603 1127.13,599.241C1121.73,599.792 1116.34,600.53 1110.95,601.212C1105.56,601.988 1100.17,602.746 1094.78,603.589C1084.01,605.241 1073.32,607.087 1062.66,609.296C1020.03,617.996 978.201,630.758 937.664,646.864L932.185,633.981Z" style="fill-rule:nonzero;fill:white;"/>
        <path d="M1356.5,641.273C1397.78,666.758 1443.28,686.082 1480.1,717.675C1523.35,754.78 1552.3,808.137 1559.83,864.617C1563.23,890.111 1561.12,919.195 1542.26,936.683" style="fill:none;fill-rule:nonzero;stroke:white;stroke-width:14px;"/>
        <path d="M835.047,679.578C861.133,659.429 891.538,642.861 924.445,640.943C957.351,639.024 992.786,654.722 1006.63,684.634C1019.94,713.378 1010.71,748.516 991.722,773.87C972.735,799.224 945.454,816.846 918.773,833.918C901.682,844.854 884.592,855.79 867.501,866.725C851.605,876.898 835.458,887.187 817.418,892.733C799.379,898.279 778.893,898.582 762.465,889.292" style="fill:none;fill-rule:nonzero;stroke:white;stroke-width:14px;"/>
        <path d="M1338.9,1106.41C1339.01,1104.67 1339.82,1098.25 1340.77,1096.79C1342.25,1094.5 1355.48,1093.95 1358.2,1094.02C1366.18,1094.23 1361.24,1103.38 1368.89,1101.1C1376.54,1098.81 1382.8,1090.51 1385.49,1082.99C1388.22,1075.33 1388.82,1065.56 1383.76,1059.19C1378.7,1052.82 1371.74,1046.45 1364.26,1043.24C1348.93,1036.66 1299.91,1017.5 1246.51,1056.43C1242.89,1059.07 1239.16,1062.74 1239.55,1067.19C1239.8,1069.97 1241.64,1072.32 1243.56,1074.35C1249.65,1080.78 1257.26,1085.76 1265.59,1088.75C1267.3,1089.36 1269.13,1089.9 1270.91,1089.54C1273,1089.12 1274.63,1087.56 1276.35,1086.31C1281.95,1082.28 1296.04,1083.95 1302.43,1086.56C1308.83,1089.16 1307.3,1092.6 1308.49,1099.39C1309.12,1103.02 1308.78,1106.81 1309.8,1110.35C1310.14,1111.52 1310.64,1112.62 1311.28,1113.64C1315.79,1120.9 1325.94,1122.03 1332.34,1116.38C1335.41,1113.67 1338.66,1109.99 1338.9,1106.41" style="fill-rule:nonzero;fill:white;"/>
        <path d="M1345.73,1106.86C1345.64,1108.99 1345.17,1110.83 1344.6,1112.41C1344.03,1113.99 1343.37,1115.37 1342.67,1116.63C1341.23,1119.16 1339.64,1121.1 1337.67,1122.8C1335.22,1124.94 1332.24,1126.5 1329.09,1127.3C1325.96,1128.12 1322.66,1128.19 1319.52,1127.55C1316.38,1126.92 1313.38,1125.56 1310.81,1123.63C1308.24,1121.69 1306.13,1119.16 1304.7,1116.4C1303.97,1115.02 1303.38,1113.5 1303,1111.99C1302.61,1110.54 1302.39,1109.15 1302.25,1107.89C1301.99,1105.36 1302,1103.3 1301.8,1101.7C1301.75,1101.3 1301.7,1100.94 1301.64,1100.6C1301.54,1100.01 1301.44,1099.38 1301.37,1098.79C1301.2,1097.6 1301.1,1096.45 1300.99,1095.46C1300.89,1094.49 1300.77,1093.68 1300.68,1093.37C1300.57,1093.03 1300.65,1093.39 1300.81,1093.57C1300.96,1093.76 1300.88,1093.63 1300.45,1093.43C1300.05,1093.23 1299.38,1092.98 1298.64,1092.76C1297.15,1092.31 1295.41,1091.94 1293.66,1091.69C1290.19,1091.2 1286.49,1091.03 1283.55,1091.46C1282.12,1091.65 1280.85,1092.13 1280.71,1092.3C1280.7,1092.3 1280.69,1092.31 1280.68,1092.31L1280.47,1092.46L1279.94,1092.86C1279.55,1093.15 1279.08,1093.51 1278.53,1093.91C1277.42,1094.7 1275.88,1095.73 1273.7,1096.42C1272.62,1096.76 1271.39,1096.97 1270.29,1097.01C1269.17,1097.05 1268.16,1096.96 1267.26,1096.81C1265.46,1096.5 1264.08,1096 1262.98,1095.59C1260.8,1094.77 1258.66,1093.84 1256.59,1092.78C1252.45,1090.67 1248.56,1088.11 1244.98,1085.17C1243.19,1083.7 1241.48,1082.13 1239.87,1080.47C1238.33,1078.85 1236.56,1077.07 1234.93,1074.28C1234.13,1072.9 1233.4,1071.21 1233.04,1069.28C1232.66,1067.34 1232.74,1065.3 1233.18,1063.44C1233.62,1061.58 1234.38,1059.96 1235.24,1058.6C1236.09,1057.24 1237.05,1056.11 1238.01,1055.11C1238.98,1054.11 1239.96,1053.25 1240.95,1052.47C1241.44,1052.09 1241.93,1051.72 1242.42,1051.37C1242.92,1051.01 1243.33,1050.75 1243.79,1050.44C1245.59,1049.26 1247.33,1047.99 1249.18,1046.88C1252.85,1044.6 1256.59,1042.44 1260.46,1040.51C1268.18,1036.63 1276.28,1033.43 1284.68,1031.26C1301.46,1026.84 1319.14,1026.16 1336.17,1028.93C1344.69,1030.28 1353.11,1032.43 1361.15,1035.5L1364.14,1036.68L1365.61,1037.31C1366.11,1037.53 1366.55,1037.71 1367.13,1037.99C1369.35,1039 1371.42,1040.17 1373.34,1041.5C1377.18,1044.14 1380.58,1047.19 1383.39,1050.67C1384.8,1052.41 1386.06,1054.25 1387.24,1056.13C1387.91,1057.18 1388.58,1058.43 1389.05,1059.62C1389.53,1060.83 1389.89,1062.05 1390.14,1063.27C1390.64,1065.71 1390.76,1068.1 1390.66,1070.4C1390.58,1072.71 1390.29,1074.94 1389.89,1077.13C1389.48,1079.32 1388.97,1081.48 1388.29,1083.59C1387.59,1085.72 1386.69,1087.78 1385.63,1089.74C1383.54,1093.67 1380.83,1097.32 1377.28,1100.39C1375.49,1101.92 1373.45,1103.28 1371.12,1104.25C1370.53,1104.5 1369.95,1104.72 1369.27,1104.93C1368.94,1105.03 1368.54,1105.11 1368.18,1105.2C1367.75,1105.26 1367.38,1105.34 1366.87,1105.35C1365.94,1105.4 1364.67,1105.29 1363.38,1104.61C1362.1,1103.93 1361.21,1102.81 1360.73,1102C1360.23,1101.16 1359.98,1100.51 1359.76,1100C1359.55,1099.49 1359.37,1099.11 1359.22,1098.87C1359.07,1098.62 1358.96,1098.52 1358.91,1098.52C1358.86,1098.51 1358.9,1098.61 1358.9,1098.66C1358.95,1098.76 1358.66,1098.71 1358.11,1098.77L1356.83,1098.88L1355.38,1099.05C1353.44,1099.29 1351.49,1099.58 1349.61,1099.94C1348.67,1100.12 1347.75,1100.31 1346.89,1100.53C1346.04,1100.75 1345.2,1101.01 1344.66,1101.25C1344.42,1101.36 1344.21,1101.51 1344.43,1101.44C1344.54,1101.38 1344.79,1101.32 1345.39,1100.72C1345.52,1100.59 1345.72,1100.36 1345.87,1100.12C1345.95,1100.02 1345.99,1099.97 1346.04,1099.88C1346.09,1099.81 1346.14,1099.71 1346.17,1099.64L1346.2,1099.63C1346.27,1099.55 1346.18,1099.95 1346.14,1100.28L1346,1101.5C1345.91,1102.37 1345.84,1103.3 1345.79,1104.24L1345.73,1105.64C1345.72,1106.07 1345.71,1106.59 1345.73,1106.86M1332.07,1105.96C1332.16,1105.2 1332.26,1104.69 1332.36,1104.1L1332.69,1102.43C1332.92,1101.33 1333.18,1100.23 1333.48,1099.08C1333.63,1098.5 1333.79,1097.91 1333.99,1097.28C1334.21,1096.61 1334.38,1096.01 1334.84,1094.97L1335.01,1094.6C1335.1,1094.41 1335.21,1094.21 1335.32,1094.02C1335.43,1093.82 1335.53,1093.65 1335.67,1093.43C1335.9,1093.1 1336.17,1092.76 1336.39,1092.54C1337.34,1091.55 1338.02,1091.21 1338.59,1090.9C1339.72,1090.33 1340.48,1090.14 1341.22,1089.94C1342.65,1089.59 1343.85,1089.44 1345.03,1089.32C1346.2,1089.2 1347.32,1089.14 1348.43,1089.09C1350.66,1089.02 1352.81,1089.03 1354.99,1089.09L1356.63,1089.16C1357.21,1089.19 1357.72,1089.22 1358.44,1089.28C1359.93,1089.42 1361.75,1089.74 1363.57,1090.92C1364.46,1091.49 1365.29,1092.28 1365.86,1093.1C1366.45,1093.91 1366.82,1094.72 1367.09,1095.42C1367.35,1096.12 1367.51,1096.72 1367.64,1097.18C1367.77,1097.63 1367.88,1097.96 1367.88,1098.02C1367.9,1098.1 1367.69,1097.81 1367.3,1097.64C1366.92,1097.47 1366.7,1097.53 1366.8,1097.55C1366.8,1097.58 1366.94,1097.56 1367.03,1097.58C1367.17,1097.56 1367.28,1097.58 1367.45,1097.54C1367.77,1097.49 1368.17,1097.4 1368.56,1097.3C1370.09,1096.84 1371.63,1096.06 1373.08,1095.05C1376.01,1093.01 1378.51,1090.06 1380.48,1086.84C1381.44,1085.2 1382.26,1083.5 1382.91,1081.73C1383.57,1079.95 1384.08,1078.1 1384.35,1076.22C1384.9,1072.48 1384.46,1068.59 1382.9,1065.61C1382.13,1064.1 1381.18,1062.92 1380.01,1061.91C1378.61,1060.57 1377.15,1059.31 1375.7,1058.08C1372.79,1055.63 1369.91,1053.25 1366.87,1051.35C1365.34,1050.42 1363.81,1049.57 1362.27,1048.9C1361.91,1048.73 1361.4,1048.53 1360.95,1048.34L1359.57,1047.78L1356.82,1046.66C1349.49,1043.78 1341.99,1041.36 1334.26,1039.9C1318.83,1036.94 1302.73,1037.71 1287.77,1042.29C1280.27,1044.5 1273.05,1047.64 1266.17,1051.39C1262.72,1053.26 1259.39,1055.34 1256.13,1057.54C1254.48,1058.6 1252.93,1059.83 1251.32,1060.96C1250.94,1061.25 1250.49,1061.56 1250.16,1061.82C1249.82,1062.08 1249.5,1062.34 1249.19,1062.6C1248.58,1063.12 1248.03,1063.65 1247.58,1064.15C1246.67,1065.16 1246.25,1066.08 1246.25,1066.37C1246.24,1066.52 1246.25,1066.58 1246.29,1066.66C1246.33,1066.75 1246.42,1066.99 1246.67,1067.38C1247.14,1068.15 1248.27,1069.36 1249.63,1070.65C1250.94,1071.9 1252.32,1073.08 1253.75,1074.17C1256.62,1076.37 1259.73,1078.25 1262.98,1079.78C1264.61,1080.54 1266.27,1081.23 1267.96,1081.81C1268.8,1082.11 1269.39,1082.25 1269.62,1082.28C1269.74,1082.3 1269.76,1082.29 1269.68,1082.29C1269.61,1082.28 1269.39,1082.32 1269.3,1082.35C1269.09,1082.42 1269.34,1082.35 1269.89,1081.93L1270.95,1081.13L1271.65,1080.59L1272.06,1080.29L1272.68,1079.88C1274.35,1078.82 1275.91,1078.21 1277.37,1077.77C1278.82,1077.34 1280.19,1077.08 1281.51,1076.9C1286.75,1076.25 1291.37,1076.62 1296.02,1077.43C1298.35,1077.85 1300.64,1078.39 1303.07,1079.21C1304.29,1079.63 1305.55,1080.1 1306.98,1080.86C1308.38,1081.6 1310.03,1082.65 1311.53,1084.41C1312.27,1085.28 1312.91,1086.3 1313.37,1087.3C1313.84,1088.31 1314.13,1089.28 1314.32,1090.12C1314.7,1091.82 1314.78,1093.08 1314.88,1094.15C1314.96,1095.21 1315.04,1096.12 1315.15,1096.97C1315.21,1097.4 1315.27,1097.79 1315.34,1098.22C1315.45,1098.89 1315.54,1099.55 1315.61,1100.17C1315.86,1102.67 1315.92,1104.75 1316.12,1106.31C1316.21,1107.1 1316.34,1107.75 1316.5,1108.29C1316.64,1108.77 1316.84,1109.17 1317.1,1109.6C1318.18,1111.32 1320.01,1112.07 1321.88,1112.04C1323.78,1112 1325.47,1111.26 1326.76,1110.16L1327.64,1109.41C1327.95,1109.15 1328.25,1108.91 1328.55,1108.67L1330.27,1107.38C1330.8,1106.99 1331.25,1106.61 1331.55,1106.33C1331.85,1106.05 1332,1105.89 1332.07,1105.96" style="fill-rule:nonzero;fill:white;"/>
        <path d="M1334.27,1120.83C1333.62,1123.78 1332.96,1126.73 1332.28,1129.67C1331.55,1132.61 1330.82,1135.54 1329.98,1138.42C1329.17,1141.32 1328.3,1144.17 1327.35,1146.97C1326.45,1149.78 1325.5,1152.54 1324.5,1155.25C1323.53,1157.97 1322.57,1160.67 1321.57,1163.32C1321.08,1164.57 1320.56,1166.29 1319.39,1168.45C1318.8,1169.51 1318,1170.69 1316.9,1171.8C1316.62,1172.08 1316.34,1172.35 1316.02,1172.61L1315.79,1172.81C1315.93,1172.7 1315.16,1173.31 1314.83,1173.48C1314.43,1173.73 1313.82,1174.01 1313.68,1174.05C1313.44,1174.15 1313.19,1174.23 1312.94,1174.31C1312.64,1174.39 1312.47,1174.43 1312.36,1174.45C1312.1,1174.5 1311.74,1174.56 1311.56,1174.58L1311.04,1174.62L1310.66,1174.64C1310.39,1174.65 1310.24,1174.64 1310.06,1174.64C1309.73,1174.63 1309.47,1174.62 1309.24,1174.6L1305.05,1174.22C1303.78,1174.13 1302.52,1174.06 1301.26,1174.04C1298.75,1174.02 1296.22,1174.15 1293.69,1174.42C1288.62,1174.95 1283.56,1176.13 1278.59,1177.73C1273.62,1179.33 1268.74,1181.35 1263.98,1183.7C1261.6,1184.88 1259.25,1186.14 1256.92,1187.47C1255.76,1188.13 1254.62,1188.81 1253.46,1189.51L1249.76,1191.71C1244.78,1194.62 1239.65,1197.37 1234.29,1199.79C1228.96,1202.24 1223.38,1204.33 1217.59,1205.9C1211.8,1207.5 1205.76,1208.48 1199.64,1208.67C1193.53,1208.85 1187.33,1208.22 1181.41,1206.59C1175.5,1204.95 1169.91,1202.43 1164.83,1199.21C1159.74,1196 1155.19,1192.03 1151.27,1187.56C1147.35,1183.1 1144.14,1178.02 1141.84,1172.59C1139.53,1167.17 1138.26,1161.34 1138.11,1155.55C1137.98,1149.78 1138.94,1143.94 1141.44,1138.87C1140.63,1141.57 1140.26,1144.35 1140.17,1147.1C1140.07,1149.86 1140.31,1152.62 1140.76,1155.3C1141.62,1160.69 1143.58,1165.8 1146.22,1170.44C1151.6,1179.7 1159.81,1187.06 1169.1,1191.78C1178.42,1196.57 1188.76,1198.4 1198.9,1197.28C1203.98,1196.74 1209.01,1195.49 1213.97,1193.86C1218.92,1192.21 1223.77,1190.06 1228.57,1187.71C1233.35,1185.32 1238.07,1182.68 1242.75,1179.87L1246.25,1177.73C1247.49,1176.97 1248.76,1176.21 1250.02,1175.48C1252.57,1174.01 1255.16,1172.61 1257.8,1171.29C1263.08,1168.64 1268.57,1166.32 1274.27,1164.44C1279.97,1162.57 1285.88,1161.16 1291.95,1160.31C1294.99,1159.9 1298.07,1159.66 1301.16,1159.59C1302.7,1159.55 1304.26,1159.55 1305.79,1159.6L1309.99,1159.77C1310.11,1159.77 1310.2,1159.77 1310.22,1159.77C1310.22,1159.77 1310.24,1159.77 1310.15,1159.77L1310.03,1159.77C1309.94,1159.77 1309.86,1159.78 1309.77,1159.79C1309.68,1159.8 1309.41,1159.84 1309.24,1159.88L1308.78,1159.99C1308.58,1160.05 1308.37,1160.12 1308.17,1160.2C1308.07,1160.24 1307.49,1160.48 1307.13,1160.71C1306.83,1160.86 1306.11,1161.46 1306.28,1161.32L1306.25,1161.34L1306.13,1161.42C1306,1161.52 1306,1161.53 1306.07,1161.36C1306.22,1161.03 1306.5,1160.05 1306.87,1158.62C1307.59,1155.94 1308.29,1153.28 1308.92,1150.62C1311.47,1139.98 1312.69,1129.66 1311.88,1119.08L1334.27,1120.83Z" style="fill-rule:nonzero;fill:white;"/>
        <path d="M1313.63,1160.57C1316.88,1161.79 1319.88,1163.08 1322.85,1164.48C1325.83,1165.86 1328.73,1167.37 1331.63,1168.9C1337.39,1172.05 1343.05,1175.3 1348.62,1179.57C1350.03,1180.66 1351.42,1181.79 1352.88,1183.21L1353.96,1184.3C1354.3,1184.65 1354.56,1184.95 1354.85,1185.28C1355.42,1185.92 1355.98,1186.55 1356.5,1187.18C1358.6,1189.71 1360.47,1192.07 1362.36,1194.06C1363.3,1195.07 1364.27,1195.89 1365.25,1196.78C1365.77,1197.18 1366.3,1197.57 1366.81,1197.99C1367.32,1198.41 1367.9,1198.74 1368.44,1199.13C1370.67,1200.59 1373.08,1201.83 1375.64,1202.77C1385.89,1206.51 1398.04,1205.89 1407.75,1199.71C1417.5,1193.57 1424.94,1182.74 1426.75,1170.05C1427.6,1176.4 1426.67,1183.15 1424.14,1189.35C1422.87,1192.44 1421.3,1195.47 1419.29,1198.23C1417.29,1200.99 1414.96,1203.55 1412.35,1205.86C1407.04,1210.34 1400.43,1213.7 1393.4,1215.01C1386.39,1216.41 1379.04,1216.13 1372.05,1214.22C1368.55,1213.25 1365.15,1211.87 1361.92,1210.11C1361.12,1209.64 1360.3,1209.23 1359.53,1208.71L1357.23,1207.15C1355.77,1206 1354.26,1204.83 1352.97,1203.59C1350.34,1201.12 1348.13,1198.62 1346.04,1196.38L1344.52,1194.75C1344.27,1194.5 1344,1194.2 1343.78,1193.99L1343.16,1193.43C1342.31,1192.66 1341.22,1191.81 1340.08,1191C1337.78,1189.37 1335.25,1187.78 1332.68,1186.22C1330.08,1184.67 1327.4,1183.21 1324.71,1181.72C1322.02,1180.25 1319.28,1178.87 1316.55,1177.46C1313.82,1176.1 1311.06,1174.74 1308.43,1173.57L1313.63,1160.57Z" style="fill-rule:nonzero;fill:white;"/>
        <path d="M1211.73,1198.37C1216.71,1204.51 1221.69,1210.58 1227.24,1216.06C1232.79,1221.52 1238.7,1226.55 1245.07,1230.92C1257.83,1239.56 1272.6,1245.25 1288.05,1246.6C1303.44,1247.94 1319.43,1245.05 1333.34,1237.8L1335.93,1236.43C1336.8,1235.98 1337.61,1235.42 1338.45,1234.92C1339.28,1234.41 1340.13,1233.91 1340.95,1233.38L1343.35,1231.69C1346.53,1229.41 1349.48,1226.83 1352.23,1224.07C1357.6,1218.45 1361.96,1211.83 1364.34,1204.65L1371.89,1207.95C1367.63,1215.58 1362.39,1222.33 1356.35,1228.2L1354.01,1230.32C1353.23,1231.02 1352.49,1231.77 1351.65,1232.41C1350.02,1233.72 1348.44,1235.11 1346.7,1236.28L1344.16,1238.14C1343.29,1238.72 1342.4,1239.28 1341.52,1239.85C1340.63,1240.39 1339.78,1241.01 1338.86,1241.51L1336.11,1243.03C1321.42,1251.08 1304.52,1255.22 1287.57,1254.58C1279.1,1254.27 1270.64,1252.81 1262.54,1250.18C1254.45,1247.55 1246.68,1243.86 1239.59,1239.19C1232.48,1234.54 1226.01,1229.02 1220.17,1222.95L1215.95,1218.26C1214.57,1216.68 1213.35,1214.98 1212.04,1213.35L1210.13,1210.85C1209.52,1210.01 1208.95,1209.13 1208.37,1208.27C1207.21,1206.53 1206.07,1204.79 1204.94,1203.04L1211.73,1198.37Z" style="fill-rule:nonzero;fill:white;"/>
        <path d="M1369.34,942.881C1372.38,929.522 1377.69,916.541 1385.09,904.678L1385.1,904.673C1385.83,903.499 1387.37,903.141 1388.55,903.873C1389.72,904.605 1390.08,906.15 1389.35,907.323C1389.29,907.406 1389.23,907.497 1389.17,907.572C1380.74,918.013 1373.98,929.989 1369.34,942.881" style="fill-rule:nonzero;fill:white;"/>
        <path d="M1366.73,914.225C1369.21,905.67 1373.06,897.381 1378.17,889.778L1378.18,889.766C1378.95,888.615 1380.51,888.309 1381.66,889.084C1382.81,889.858 1383.12,891.419 1382.35,892.57C1382.26,892.699 1382.15,892.827 1382.05,892.934C1375.97,899.084 1370.76,906.282 1366.73,914.225" style="fill-rule:nonzero;fill:white;"/>
        <path d="M1205.65,899.15C1203.8,886.486 1199.19,874.418 1192.39,864.009C1191.63,862.85 1191.96,861.297 1193.12,860.541C1194.28,859.784 1195.83,860.109 1196.59,861.268C1196.64,861.356 1196.7,861.447 1196.74,861.54L1196.75,861.561C1202.46,873.423 1205.46,886.353 1205.65,899.15" style="fill-rule:nonzero;fill:white;"/>
        <path d="M1200.12,914.141C1199.06,901.833 1193.08,890.369 1184.23,882.738C1183.18,881.834 1183.06,880.251 1183.97,879.203C1184.87,878.155 1186.45,878.038 1187.5,878.942C1187.59,879.015 1187.66,879.091 1187.74,879.172L1187.76,879.196C1196.37,888.965 1200.73,901.805 1200.12,914.141" style="fill-rule:nonzero;fill:white;"/>
        <path d="M1299.91,1017.5C1303.33,1015.76 1307.02,1014.66 1310.78,1013.97C1314.54,1013.29 1318.39,1013.05 1322.22,1013.23C1326.05,1013.4 1329.86,1014 1333.55,1015.03C1337.23,1016.08 1340.8,1017.53 1344.02,1019.62L1332.91,1018.32C1329.26,1017.92 1325.64,1017.63 1322.02,1017.44C1318.39,1017.26 1314.76,1017.2 1311.1,1017.24C1307.42,1017.27 1303.74,1017.44 1299.91,1017.5" style="fill-rule:nonzero;fill:white;"/>
        <path d="M1305.9,1003.58C1307.29,1002.62 1308.68,1002.09 1310.07,1001.7C1311.46,1001.31 1312.85,1001.13 1314.24,1001.07C1315.63,1001.01 1317.02,1001.13 1318.4,1001.49C1319.8,1001.88 1321.18,1002.43 1322.57,1003.58C1321.18,1004.73 1319.8,1005.28 1318.4,1005.67C1317.02,1006.03 1315.63,1006.15 1314.24,1006.09C1312.85,1006.03 1311.46,1005.85 1310.07,1005.46C1308.68,1005.08 1307.29,1004.54 1305.9,1003.58" style="fill-rule:nonzero;fill:white;"/>
        <path d="M1244.16,1414.6C1243.74,1394.28 1274.84,1378.38 1295.26,1379.16" style="fill:none;fill-rule:nonzero;stroke:white;stroke-width:14px;"/>
        <path d="M1225.87,1381.96C1236.54,1385.86 1247.06,1390.17 1257.4,1394.89" style="fill:none;fill-rule:nonzero;stroke:white;stroke-width:14px;"/>
        <path d="M1179.59,938.929C1179.58,938.902 1179.57,938.874 1179.57,938.846C1178.86,936.562 1175.67,936.516 1174.84,938.757C1171.89,946.729 1166.41,953.063 1158.86,956.178C1141.97,963.145 1121.09,951.375 1112.23,929.887C1103.37,908.401 1109.88,885.334 1126.77,878.367C1129.11,877.403 1131.52,876.798 1133.97,876.529C1138.45,876.034 1140.23,870.388 1136.77,867.485L1136.64,867.383C1116.16,850.24 1074.64,841.778 1030.03,860.95C999.712,873.978 1005.07,923.035 1006.52,934.58C1010.29,964.701 1027.94,992.939 1053.75,1010.14C1079.56,1027.34 1113.1,1033.22 1143.5,1025.87C1152.82,1023.62 1162.03,1020.07 1169.24,1013.91C1189.9,996.263 1187.44,964.505 1179.59,938.929" style="fill-rule:nonzero;fill:white;"/>
        <path d="M1179.59,938.929C1179.58,938.902 1179.57,938.874 1179.57,938.846C1178.86,936.562 1175.67,936.516 1174.84,938.757C1171.89,946.729 1166.41,953.063 1158.86,956.178C1141.97,963.145 1121.09,951.375 1112.23,929.887C1103.37,908.401 1109.88,885.334 1126.77,878.367C1129.11,877.403 1131.52,876.798 1133.97,876.529C1138.45,876.034 1140.23,870.388 1136.77,867.485L1136.64,867.383C1116.16,850.24 1074.64,841.778 1030.03,860.95C999.712,873.978 1005.07,923.035 1006.52,934.58C1010.29,964.701 1027.94,992.939 1053.75,1010.14C1079.56,1027.34 1113.1,1033.22 1143.5,1025.87C1152.82,1023.62 1162.03,1020.07 1169.24,1013.91C1189.9,996.263 1187.44,964.505 1179.59,938.929Z" style="fill:none;fill-rule:nonzero;stroke:white;stroke-width:13.78px;"/>
        <path d="M1505.23,935.762C1501.14,876.363 1455.78,865.825 1424.51,893.609C1422.4,895.489 1423.17,898.895 1425.84,899.854C1425.86,899.863 1425.88,899.871 1425.91,899.881C1439.39,904.81 1443.85,926.503 1435.87,948.332C1427.88,970.161 1410.49,983.862 1397,978.932C1396.14,978.616 1395.34,978.244 1394.6,977.821C1392.16,976.43 1389.1,978.009 1389.01,980.811C1388.74,989.418 1389.32,998.047 1390.81,1006.54C1392.86,1018.22 1396.84,1030.01 1404.9,1038.18C1416.91,1050.36 1436.13,1051.83 1451.38,1044.96C1466.63,1038.09 1478.29,1024.2 1486.73,1008.98C1498.95,986.971 1506.99,961.297 1505.23,935.762" style="fill-rule:nonzero;fill:white;"/>
        <path d="M1505.23,935.762C1501.14,876.363 1455.78,865.825 1424.51,893.609C1422.4,895.489 1423.17,898.895 1425.84,899.854C1425.86,899.863 1425.88,899.871 1425.91,899.881C1439.39,904.81 1443.85,926.503 1435.87,948.332C1427.88,970.161 1410.49,983.862 1397,978.932C1396.14,978.616 1395.34,978.244 1394.6,977.821C1392.16,976.43 1389.1,978.009 1389.01,980.811C1388.74,989.418 1389.32,998.047 1390.81,1006.54C1392.86,1018.22 1396.84,1030.01 1404.9,1038.18C1416.91,1050.36 1436.13,1051.83 1451.38,1044.96C1466.63,1038.09 1478.29,1024.2 1486.73,1008.98C1498.95,986.971 1506.99,961.297 1505.23,935.762Z" style="fill:none;fill-rule:nonzero;stroke:white;stroke-width:15.78px;"/>
        <path d="M653.718,534.892C653.718,572.973 629.514,603.844 599.657,603.844C569.801,603.844 545.597,572.973 545.597,534.892C545.597,496.811 569.801,465.94 599.657,465.94C629.514,465.94 653.718,496.811 653.718,534.892" style="fill-rule:nonzero;fill:white;"/>
        <path d="M1749.62,704.203C1749.62,740.318 1725.93,769.595 1696.71,769.595C1667.49,769.595 1643.8,740.318 1643.8,704.203C1643.8,668.088 1667.49,638.811 1696.71,638.811C1725.93,638.811 1749.62,668.088 1749.62,704.203" style="fill-rule:nonzero;fill:white;"/>
        <path d="M648.99,690.92C648.99,729.001 624.786,759.872 594.929,759.872C565.073,759.872 540.869,729.001 540.869,690.92C540.869,652.839 565.073,621.968 594.929,621.968C624.786,621.968 648.99,652.839 648.99,690.92" style="fill-rule:nonzero;fill:white;"/>
        <path d="M1749.62,858.288C1749.62,895.942 1725.93,926.466 1696.71,926.466C1667.49,926.466 1643.8,895.942 1643.8,858.288C1643.8,820.635 1667.49,790.111 1696.71,790.111C1725.93,790.111 1749.62,820.635 1749.62,858.288" style="fill-rule:nonzero;fill:white;"/>
        <path d="M1563,641.798L1617.11,625.926C1635.6,620.505 1654.55,616.824 1673.72,614.995C1689.05,613.532 1701.69,612.565 1715.18,614.022C1732.31,615.875 1748.41,623.599 1760.51,635.874C1761.67,637.05 1762.57,638.066 1763.06,638.811C1771.09,650.962 1774.66,676.198 1775.52,690.739C1779.91,764.737 1772.03,850.344 1764.61,924.1" style="fill:none;fill-rule:nonzero;stroke:white;stroke-width:14.18px;"/>
        <path d="M536.541,447.835C457.461,489.769 354.624,534.274 301.049,605.981C289.22,621.813 276.541,658.299 276.343,681.07C275.791,744.608 275.239,808.146 274.687,871.684C274.484,895.01 274.456,919.199 284.116,940.432C291.21,956.027 303.181,969.024 316.774,979.454C341.128,998.139 371.268,1009.17 401.931,1010.62" style="fill:none;fill-rule:nonzero;stroke:white;stroke-width:14.18px;"/>
        <path d="M272.183,911.821C288.72,896.78 306.134,882.749 324.246,869.79C342.355,856.821 361.16,844.946 380.327,833.828C399.498,822.707 419.032,812.33 438.679,802.237C458.33,792.147 478.095,782.327 497.817,772.414C478.655,783.368 459.437,794.236 440.383,805.346C421.333,816.46 402.449,827.83 384.05,839.865C365.652,851.897 347.743,864.602 330.663,878.275C313.579,891.939 297.32,906.548 282.005,922.055L272.183,911.821Z" style="fill-rule:nonzero;fill:white;"/>
        <path d="M618.206,788.145C613.669,788.079 609.127,788.083 604.579,788.092L590.913,788.104C581.791,788.113 572.634,787.954 563.462,787.229C558.878,786.862 554.29,786.322 549.732,785.491C545.174,784.669 540.641,783.547 536.237,781.947C534.042,781.132 531.876,780.218 529.773,779.156C527.452,778.012 525.5,776.251 523.96,774.338C520.857,770.469 519.012,766.026 517.497,761.599C516.018,757.144 515.005,752.595 514.212,748.032C513.427,743.466 512.875,738.875 512.552,734.272C512.377,731.97 512.281,729.666 512.221,727.354C512.192,726.197 512.174,725.045 512.178,723.868L512.298,720.405L512.809,706.764C513.384,688.602 513.892,670.431 514.34,652.25C515.281,615.891 516.181,579.499 517.706,543.112C518.156,534.018 518.486,524.918 519.022,515.824C519.262,511.276 519.509,506.728 519.831,502.184C520.126,497.638 520.341,493.086 520.691,488.543L521.695,474.907L522.297,468.095C522.383,466.958 522.531,465.828 522.566,464.686C522.544,464.111 522.368,463.52 522.07,462.916C521.773,462.311 521.345,461.693 520.941,461.076C520.727,460.767 520.538,460.459 520.36,460.153C520.166,459.845 520.007,459.541 519.874,459.239C519.75,458.938 519.63,458.638 519.565,458.343C519.532,458.196 519.499,458.049 519.48,457.903C519.45,457.782 519.474,457.481 519.47,457.277C519.475,455.473 519.791,453.52 520.538,451.708C521.26,449.884 522.371,448.246 523.611,446.9C524.862,445.558 526.242,444.485 527.616,443.636C530.381,441.936 533.096,440.933 535.711,440.139C538.332,439.361 540.878,438.848 543.381,438.457C548.381,437.697 553.217,437.418 557.985,437.326C562.754,437.23 567.448,437.348 572.103,437.549C581.405,437.956 590.576,438.771 599.562,439.462L606.326,439.937C608.687,440.104 611.056,440.315 613.43,440.58C618.177,441.108 622.952,441.86 627.72,442.942C637.221,445.094 646.87,448.606 655.432,454.627C659.695,457.615 663.623,461.273 666.906,465.401C670.225,469.509 672.849,474.091 674.923,478.79C679.017,488.249 680.794,498.1 681.664,507.631C682.508,517.182 682.445,526.571 682.31,535.661L681.897,562.989C681.215,599.425 680.119,635.853 678.55,672.261C676.911,708.666 674.837,745.049 672.329,781.401L658.175,780.468C660.432,744.215 662.255,707.937 663.645,671.644C665.071,635.352 666.098,599.044 666.672,562.73L667.013,535.494C667.114,526.402 667.18,517.57 666.42,508.991C665.661,500.444 664.068,492.167 660.915,484.894C657.756,477.624 653.001,471.536 646.631,467.088C640.282,462.602 632.541,459.648 624.345,457.795C620.244,456.86 616.021,456.185 611.731,455.705C609.586,455.463 607.424,455.268 605.249,455.112L598.404,454.625C589.256,453.913 580.303,453.112 571.429,452.718C566.999,452.521 562.595,452.411 558.27,452.495C553.948,452.57 549.684,452.833 545.688,453.439C543.699,453.748 541.78,454.145 540.04,454.661C538.305,455.167 536.742,455.824 535.635,456.521C534.5,457.239 533.948,457.768 533.377,458.156C533.1,458.374 532.756,458.628 532.455,459.076C532.414,459.153 532.383,459.132 532.328,459.294C532.281,459.431 532.22,459.567 532.159,459.702C532.037,459.973 531.86,460.238 531.679,460.503C531.489,460.767 531.274,461.028 531.023,461.286C530.789,461.545 530.542,461.804 530.272,462.06C529.754,462.574 529.212,463.087 528.802,463.614C528.392,464.141 528.102,464.681 527.966,465.237C527.774,466.358 527.696,467.49 527.555,468.615L526.799,475.378L525.486,488.929C524.662,497.97 523.906,507.019 523.364,516.085C522.746,525.146 522.248,534.218 521.843,543.293C520.211,579.603 519.952,615.972 519.387,652.355C519.073,670.547 518.721,688.747 518.073,706.945L517.549,720.57L517.424,723.924C517.406,725.02 517.409,726.143 517.421,727.258C517.447,729.494 517.529,731.734 517.623,733.973C518.069,742.903 518.915,751.905 521.359,760.392C522.584,764.6 524.265,768.733 526.853,772.005C528.156,773.626 529.665,774.979 531.434,775.853C533.4,776.827 535.436,777.666 537.509,778.418C545.842,781.386 554.8,782.578 563.754,783.159C572.733,783.712 581.785,783.562 590.847,783.326C595.38,783.216 599.918,783.001 604.462,782.809L618.114,782.214L618.206,788.145Z" style="fill-rule:nonzero;fill:white;"/>
        <path d="M1318.29,1520.7C1318.56,1520.53 1319,1519.85 1319.52,1518.96C1319.81,1518.44 1320.12,1517.88 1320.36,1517.51L1320.55,1517.2C1320.61,1517.1 1320.65,1517.08 1320.7,1517.02C1320.81,1516.89 1320.87,1516.86 1320.93,1516.85L1322.27,1517.07C1323.17,1517.19 1324.04,1517.45 1324.92,1517.67C1325.8,1517.9 1326.68,1518.14 1327.54,1518.48C1328.39,1518.81 1329.26,1519.11 1330.09,1519.52C1333.44,1521.05 1336.55,1523.19 1339.46,1525.66C1340.93,1526.89 1342.32,1528.24 1343.68,1529.66C1344.39,1530.35 1344.99,1531.16 1345.64,1531.91C1346.29,1532.67 1347.02,1533.43 1347.73,1534.2C1348.4,1535.02 1348.99,1535.92 1349.27,1536.97C1349.52,1538.05 1349.61,1539.16 1349.37,1540.38C1349.27,1540.98 1349.1,1541.58 1348.87,1542.17C1348.63,1542.79 1348.29,1543.4 1347.91,1543.99C1347.1,1545.16 1345.98,1546.31 1344.3,1547.24C1340.64,1545.91 1338.75,1545.33 1337.17,1544.64C1335.66,1543.99 1334.87,1543.26 1334.68,1542.03C1334.48,1541.46 1334.39,1540.82 1334.08,1540.28C1333.93,1540 1333.71,1539.77 1333.56,1539.5C1333.4,1539.23 1333.23,1538.97 1333.03,1538.71C1332.28,1537.68 1331.4,1536.71 1330.44,1535.79C1328.51,1533.96 1326.27,1532.36 1323.91,1530.84C1323.34,1530.42 1322.72,1530.08 1322.13,1529.66C1321.55,1529.25 1320.94,1528.86 1320.32,1528.48C1319.71,1528.08 1319.1,1527.65 1318.46,1527.26L1317.51,1526.66C1317.48,1526.62 1317.45,1526.56 1317.46,1526.4C1317.46,1526.32 1317.45,1526.28 1317.47,1526.16L1317.52,1525.8C1317.57,1525.37 1317.68,1524.73 1317.78,1524.15C1317.92,1523.12 1317.98,1522.31 1317.87,1522L1318.29,1520.7Z" style="fill-rule:nonzero;fill:white;"/>
        <path d="M674.723,499.626C713.856,466.325 763.874,446.033 815.147,442.659L825.909,440.166C837.037,423.982 860.306,417.516 878.188,425.638C878.188,425.638 945.396,385.348 982.429,370.459C991.668,366.745 1001.71,362.967 1011.34,365.48C1023.13,368.556 1030.57,380.029 1035.7,391.076C1050.22,422.296 1055.62,457.693 1051.08,491.824" style="fill:none;fill-rule:nonzero;stroke:white;stroke-width:14.18px;"/>
        <path d="M1024.29,371.167C1153.24,353.259 1287.24,374.785 1404.09,432.183L1394.59,435.436L1395.91,432.712L1396.95,430.589L1398.95,429.569L1398.95,429.567C1407.1,425.651 1416.12,424.605 1424.59,425.977C1428.84,426.649 1432.98,427.954 1436.85,429.841C1440.73,431.723 1444.33,434.205 1447.44,437.297C1450.64,440.463 1453.1,444.194 1454.86,448.078C1456.63,451.971 1457.75,456.009 1458.46,460.04C1459.17,464.077 1459.42,468.127 1459.32,472.154C1459.29,474.169 1459.04,476.165 1459,478.189C1458.97,480.222 1459,482.266 1459.42,484.492L1457.59,478.058C1473.44,494.469 1487.61,512.484 1499.85,531.722C1505.98,541.342 1511.63,551.261 1516.74,561.456C1517.99,564.021 1519.28,566.565 1520.48,569.15C1521.65,571.738 1522.92,574.331 1524.02,576.916C1526.24,582.142 1528.53,587.133 1530.8,592.189L1529.45,590.189C1557.01,618.935 1580.01,651.96 1597.63,687.628C1606.45,705.46 1613.9,723.969 1619.9,742.941C1622.9,752.426 1625.54,762.027 1627.81,771.717C1628.38,774.139 1628.93,776.564 1629.43,779.002L1630.21,782.649L1630.9,786.246C1631.35,788.66 1631.87,791.018 1632.4,793.37L1633.98,800.439L1634.06,800.821L1634.1,801.209C1638.86,844.687 1643.62,888.269 1646.72,932.084C1649.81,975.885 1651.23,1019.95 1649.25,1064.02C1647.25,1108.08 1641.77,1152.13 1631.37,1195.19C1620.98,1238.2 1605.56,1280.26 1583.95,1319.15L1584.61,1313.94L1586.58,1321.54L1586.81,1322.44L1586.8,1323.31C1586.78,1325.92 1586.51,1328.2 1586.19,1330.44C1585.87,1332.68 1585.44,1334.81 1584.99,1336.92C1584.54,1339.04 1584.04,1341.11 1583.5,1343.17C1582.95,1345.25 1582.41,1347.23 1581.75,1349.38L1581.4,1350.53L1580.65,1351.53L1561.82,1376.6L1552.38,1389.16C1549.17,1393.39 1545.71,1397.8 1541.5,1401.88C1539.39,1403.92 1537.1,1405.87 1534.58,1407.62C1532.06,1409.36 1529.44,1410.82 1526.84,1412.08C1521.6,1414.59 1516.48,1416.34 1511.63,1418.14L1482.19,1428.93L1485.7,1426.12C1477.29,1439.2 1468.87,1452.43 1461.04,1465.69C1457.22,1472.15 1453.5,1479.56 1448.02,1486.42C1442.5,1493.31 1435.8,1498.77 1429.03,1503.41C1425.63,1505.73 1422.18,1507.88 1418.78,1509.92C1415.39,1511.97 1411.97,1514 1408.52,1515.96C1401.62,1519.9 1394.64,1523.68 1387.57,1527.28C1373.43,1534.49 1358.98,1541.02 1344.39,1547.07L1338.95,1533.97C1353.28,1528.03 1367.37,1521.65 1381.12,1514.65C1388,1511.14 1394.78,1507.47 1401.48,1503.64C1404.83,1501.74 1408.14,1499.78 1411.44,1497.78C1414.76,1495.8 1417.95,1493.8 1421.01,1491.7C1427.13,1487.52 1432.66,1482.92 1436.94,1477.57C1439.09,1474.88 1441.05,1471.86 1442.96,1468.65C1443.92,1467.05 1444.86,1465.39 1445.82,1463.7C1446.77,1462.03 1447.8,1460.22 1448.8,1458.53C1456.88,1444.84 1465.28,1431.66 1473.8,1418.41L1475.08,1416.43L1477.31,1415.61L1506.75,1404.82C1511.7,1403 1516.48,1401.33 1520.67,1399.3C1522.77,1398.29 1524.73,1397.19 1526.51,1395.96C1528.28,1394.72 1529.99,1393.29 1531.64,1391.69C1534.94,1388.5 1537.99,1384.68 1541.08,1380.59L1550.48,1368.08L1569.31,1343.01L1568.21,1345.16C1568.74,1343.41 1569.29,1341.45 1569.77,1339.59C1570.27,1337.7 1570.73,1335.8 1571.13,1333.93C1571.53,1332.05 1571.9,1330.18 1572.16,1328.37C1572.42,1326.58 1572.61,1324.79 1572.62,1323.31L1572.84,1325.08L1570.88,1317.48L1570.17,1314.74L1571.55,1312.27C1592.45,1274.65 1607.44,1233.82 1617.58,1191.85C1627.73,1149.85 1633.12,1106.69 1635.08,1063.38C1637.03,1020.04 1635.64,976.522 1632.57,933.083C1629.5,889.629 1624.76,846.228 1620,802.752L1620.13,803.52L1618.52,796.289C1617.98,793.876 1617.44,791.465 1617.01,789.074L1616.31,785.479L1615.56,781.96C1615.08,779.614 1614.55,777.276 1613.99,774.945C1611.81,765.613 1609.27,756.363 1606.38,747.224C1600.6,728.943 1593.41,711.1 1584.91,693.908C1567.92,659.521 1545.74,627.682 1519.21,600.011L1518.36,599.125L1517.86,598.012C1515.56,592.882 1513.2,587.722 1511.05,582.673C1509.97,580.119 1508.78,577.693 1507.65,575.196C1506.5,572.72 1505.26,570.284 1504.07,567.826C1499.17,558.058 1493.75,548.554 1487.89,539.334C1476.15,520.899 1462.57,503.637 1447.39,487.92L1443.48,483.87L1445.56,481.486C1446.76,480.108 1447.39,478.513 1447.78,476.883C1448.17,475.248 1448.18,473.561 1448.24,471.894C1448.31,468.551 1448.06,465.211 1447.48,461.989C1446.32,455.556 1443.62,449.57 1439.39,445.651C1437.19,443.63 1434.58,441.955 1431.78,440.728C1428.97,439.503 1425.95,438.737 1422.89,438.409C1416.78,437.775 1410.51,439.026 1405.63,442.079L1405.63,442.079L1408.66,438.936L1407.33,441.66L1404.21,448.049L1397.83,444.914C1283.58,388.778 1152.32,367.69 1026.24,385.216L1024.29,371.167Z" style="fill-rule:nonzero;fill:white;"/>
        <path d="M1635.54,950.18C1655.76,942.275 1675.98,934.37 1696.19,926.466C1708.23,921.76 1720.61,916.986 1733.53,916.937C1747.91,916.884 1785.67,931.827 1785.67,931.827C1813.52,957.556 1818.3,1080.59 1782.47,1117.32C1774.9,1125.08 1750.68,1145.86 1720.36,1154.64C1683.76,1165.24 1660.83,1169.15 1624.62,1180.99" style="fill:none;fill-rule:nonzero;stroke:white;stroke-width:14.18px;"/>
        <path d="M1604.03,1262.43C1617.93,1269.92 1649.27,1286.9 1650.33,1288.6C1660.04,1304.26 1642.63,1362.57 1610.06,1372.47C1607.01,1373.4 1574.29,1361.92 1568.05,1356.5" style="fill:none;fill-rule:nonzero;stroke:white;stroke-width:14.18px;"/>
        <path d="M756.133,895.518C757.788,884.571 759.069,873.391 760.378,862.151L761.37,853.706L762.44,845.245C762.788,842.421 763.154,839.596 763.548,836.764L764.725,828.268C766.346,816.93 768.117,805.55 770.584,794.158C771.212,791.31 771.821,788.462 772.603,785.613L773.714,781.341L775.028,777.072C775.834,774.225 776.962,771.387 778.03,768.551C778.55,767.089 779.149,765.839 779.716,764.501L781.436,760.542L784.886,752.628L788.547,744.802C790.924,739.556 793.577,734.435 796.16,729.282C797.426,726.693 798.808,724.161 800.184,721.625L804.3,714.013L808.637,706.518C810.084,704.021 811.515,701.514 813.073,699.079L817.652,691.721C819.186,689.272 820.84,686.898 822.428,684.483C825.568,679.627 829.029,674.983 832.371,670.261C839.311,660.995 846.522,651.913 854.295,643.3C862.076,634.699 870.254,626.447 878.86,618.646C887.51,610.896 896.58,603.611 906.016,596.837C924.881,583.271 945.279,571.896 966.476,562.618C987.681,553.309 1009.57,545.965 1031.61,539.676C1053.65,533.283 1075.97,527.78 1098.56,523.601C1143.71,515.161 1189.78,511.222 1235.77,512.813C1258.75,513.648 1281.69,515.914 1304.42,519.594C1315.77,521.501 1327.07,523.754 1338.28,526.396C1349.49,529.049 1360.6,532.158 1371.59,535.681C1382.58,539.198 1393.41,543.247 1404.06,547.841C1406.71,548.998 1409.37,550.187 1411.99,551.427L1419.74,555.142C1424.89,557.643 1430.02,560.177 1435.12,562.776C1455.54,573.143 1475.58,584.325 1495,596.589C1514.37,608.904 1533.16,622.304 1550.55,637.521C1559.23,645.152 1567.54,653.244 1575.27,661.926C1582.99,670.62 1590.04,679.98 1596.12,690.025L1588.02,694.898C1582.24,685.505 1575.49,676.653 1568.05,668.373C1560.58,660.104 1552.51,652.342 1544.04,644.996C1527.06,630.342 1508.59,617.338 1489.48,605.37C1470.32,593.448 1450.49,582.552 1430.25,572.448C1425.19,569.914 1420.1,567.444 1415,565.006L1407.33,561.395C1404.8,560.217 1402.25,559.096 1399.68,557.998C1389.4,553.633 1378.85,549.799 1368.15,546.41C1357.45,543.024 1346.61,540.033 1335.66,537.486C1324.71,534.95 1313.67,532.79 1302.56,530.968C1280.34,527.456 1257.88,525.321 1235.37,524.587C1190.33,523.2 1145.16,527.227 1100.86,535.682C1078.69,539.864 1056.78,545.381 1035.1,551.67C1013.39,557.895 992.025,565.107 971.543,574.131C951.052,583.131 931.487,594.086 913.401,607.125C904.355,613.636 895.663,620.635 887.367,628.085C879.115,635.585 871.265,643.526 863.785,651.812C856.313,660.111 849.37,668.883 842.675,677.84C839.451,682.413 836.109,686.9 833.075,691.611C831.54,693.953 829.941,696.25 828.457,698.626L824.025,705.769C822.517,708.13 821.131,710.568 819.729,712.997L815.523,720.282L811.529,727.694C810.194,730.162 808.851,732.625 807.621,735.152C805.111,740.178 802.53,745.166 800.217,750.293L796.653,757.935L793.292,765.675L791.615,769.547C791.073,770.829 790.446,772.152 790.026,773.377C789.1,775.871 788.109,778.32 787.372,780.956L786.176,784.846L785.147,788.837C784.421,791.478 783.845,794.197 783.25,796.907C780.912,807.767 779.185,818.898 777.601,830.091L775.295,846.948L774.118,855.41L772.811,863.882C772.393,866.709 771.87,869.532 771.361,872.364C771.099,873.778 770.87,875.192 770.581,876.605L769.7,880.848C768.539,886.499 767.092,892.165 765.32,897.76L756.133,895.518Z" style="fill-rule:nonzero;fill:white;"/>
        <path d="M758.748,961.241C763.958,1017.08 782.727,1070.71 803.301,1122.89C821.43,1168.87 841.497,1214.93 872.959,1253.05C929.993,1322.13 1001.02,1366.61 1085.5,1396.44C1085.5,1396.44 1200.65,1436.54 1365.97,1426.38C1444.27,1421.56 1528.18,1376.52 1577.75,1315.71" style="fill:none;fill-rule:nonzero;stroke:white;stroke-width:9.46px;"/>
        <path d="M723.548,979.275C750.829,1121.55 782.556,1199.66 831.999,1262.42C954.106,1417.43 1066.17,1439.61 1269.86,1466.59C1387.87,1482.21 1391.28,1457.21 1478.24,1420.73" style="fill:none;fill-rule:nonzero;stroke:white;stroke-width:9.46px;"/>
        <path d="M737.641,800.14C754.716,731.398 815.547,588.338 943.782,530.397C1068.1,474.224 1213.65,460.177 1343.88,500.844C1343.88,500.844 1467.48,533.52 1524.33,595.101" style="fill:none;fill-rule:nonzero;stroke:white;stroke-width:9.46px;"/>
        <path d="M594.759,1052.47C621.016,1131.76 659.555,1220.71 701.08,1293.18C726.598,1337.72 755.996,1386.06 747.125,1436.61C744.686,1450.51 750.361,1473.18 750.361,1473.18C789.163,1508.61 838.516,1529.82 886.86,1550.4C894.707,1553.75 903.482,1557.13 911.521,1554.28L926.165,1551.36C946.413,1530.39 975.066,1519.14 1003.89,1514.8C1032.72,1510.46 1062.29,1510.38 1091.16,1514.43C1156.31,1523.56 1215.15,1526.99 1275.27,1528.03C1287.77,1528.25 1300.23,1526.55 1312.24,1523.07C1332.82,1517.1 1364.96,1506.92 1380.87,1497.44C1395.97,1488.44 1459.28,1435.61 1468.76,1428.17" style="fill:none;fill-rule:nonzero;stroke:white;stroke-width:9.46px;"/>
        <path d="M669.659,588.338C715.162,530.43 770.25,480.071 831.998,439.934" style="fill:none;fill-rule:nonzero;stroke:white;stroke-width:9.46px;"/>
        <path d="M559.257,1071.32C594.758,1194.63 633.752,1267.91 681.912,1362.38C688.119,1374.56 694.634,1387.12 705.318,1395.64C716.002,1404.16 728.574,1404.1 743.344,1399.74" style="fill:none;fill-rule:nonzero;stroke:white;stroke-width:9.46px;"/>
        <path d="M488.087,1059.33C490.003,1060.3 491.545,1062.11 492.611,1064.08C493.676,1066.07 494.371,1068.19 494.946,1070.24C495.527,1072.29 495.997,1074.31 496.561,1076.13C497.115,1077.96 497.808,1079.58 498.636,1080.61C500.294,1082.56 502.157,1082.83 505.576,1082.08C507.229,1081.73 509.058,1081.07 511.221,1080.49C512.262,1080.18 513.297,1079.93 514.335,1079.67C515.373,1079.4 516.408,1079.16 517.442,1078.93C525.719,1077.05 533.931,1075.76 542.039,1074.33C550.122,1072.94 558.189,1071.56 565.677,1069.38L564.949,1069.65C566.358,1068.97 567.938,1068.04 569.5,1067.05C571.068,1066.05 572.661,1065 574.253,1063.92C577.442,1061.75 580.644,1059.5 583.873,1057.25C590.331,1052.74 596.904,1048.26 603.75,1044.1C610.593,1039.93 617.667,1036 625.193,1032.77C627.072,1031.96 628.982,1031.2 630.919,1030.49C631.879,1030.12 632.874,1029.81 633.849,1029.46L636.655,1028.54C640.355,1027.32 644.045,1026.07 647.724,1024.8C655.08,1022.23 662.394,1019.55 669.658,1016.73C673.291,1015.33 676.904,1013.87 680.508,1012.39L685.904,1010.15C687.675,1009.4 689.403,1008.64 691.119,1007.84C697.946,1004.65 704.481,1000.89 709.712,996.115C712.316,993.731 714.533,991.076 716.121,988.2C717.712,985.325 718.641,982.231 718.826,979.017L719.036,975.39L722.587,974.645L730.69,972.945L732.716,972.519L733.216,972.413L733.645,972.311C733.929,972.241 734.217,972.184 734.5,972.104C735.633,971.801 736.743,971.415 737.832,970.98C742.17,969.185 746.009,966.212 748.827,962.462L749.094,962.113C748.758,962.848 749.892,960.407 748.35,963.749L748.364,963.687L748.393,963.562L748.451,963.313L748.683,962.316L749.146,960.322L750.032,956.326C750.6,953.657 751.148,950.984 751.659,948.306C752.68,942.947 753.575,937.567 754.333,932.171C757.346,910.6 758.23,888.69 755.875,867.178C754.676,856.439 752.656,845.805 749.495,835.583C746.321,825.389 742.015,815.543 736.057,806.985C734.569,804.851 732.978,802.803 731.281,800.87C730.433,799.902 729.553,798.971 728.656,798.059L727.28,796.73L726.575,796.088C726.344,795.879 726.086,795.636 725.922,795.508C724.455,794.267 722.771,793.525 720.499,793.016C718.246,792.501 715.483,792.258 712.472,791.689C710.967,791.405 709.4,791.026 707.837,790.506L705.86,789.82C705.268,789.602 704.679,789.425 704.094,789.262C701.73,788.584 699.5,788.18 697.073,788.122C694.674,788.033 691.824,788.218 688.805,788.126C685.788,788.051 682.734,787.675 679.81,787.114L679.144,786.986L678.458,786.629C678.19,786.49 677.722,786.258 677.323,786.076C676.909,785.882 676.479,785.694 676.049,785.512C675.186,785.148 674.307,784.805 673.418,784.495C671.641,783.868 669.832,783.351 668.022,782.962C666.212,782.574 664.394,782.299 662.611,782.223C662.162,782.181 661.721,782.187 661.28,782.186C660.837,782.187 660.407,782.17 659.933,782.199C659.005,782.229 658.068,782.306 657.126,782.397C653.354,782.779 649.487,783.611 645.511,784.549L633.393,787.453L609.108,793.276L606.072,794.004C605.062,794.252 604.051,794.5 603.016,794.654L596.841,795.726L584.492,797.87L586.321,797.136C576.896,803.539 567.445,809.904 558.066,816.376L529.924,835.782C520.556,842.268 511.161,848.716 501.737,855.121L487.56,864.666L473.291,874.075L474.284,873.216C470.826,876.95 467.292,879.521 464.93,882.331C462.485,885.134 460.626,888.513 459.284,892.209C457.945,895.908 456.813,899.833 455.72,903.963C454.583,908.093 453.579,912.404 451.9,916.936C449.73,912.617 448.674,908.036 448.295,903.328C447.95,898.627 448.393,893.758 449.872,889.041C451.361,884.346 453.631,879.707 456.862,875.678C458.475,873.639 460.222,871.908 461.828,870.325C463.436,868.736 464.945,867.301 466.205,865.886L466.611,865.429L467.198,865.027L481.289,855.351L495.472,845.81C504.954,839.492 514.466,833.216 524.004,826.98L552.582,808.215C562.109,801.964 571.566,795.606 581.047,789.286L581.892,788.722L582.876,788.552L595.04,786.443L601.123,785.389C602.14,785.239 603.143,784.993 604.147,784.746L607.159,784.023L631.261,778.24L643.337,775.346C647.429,774.384 651.686,773.447 656.171,772.989C657.293,772.88 658.422,772.788 659.568,772.75C660.707,772.719 661.944,772.706 663.106,772.779C665.467,772.887 667.764,773.236 670.006,773.716C672.249,774.198 674.434,774.826 676.567,775.579C677.636,775.952 678.689,776.363 679.736,776.805C680.261,777.027 680.781,777.254 681.306,777.499C681.848,777.751 682.313,777.973 682.963,778.315L681.611,777.831C684.118,778.307 686.57,778.611 689.083,778.674C691.593,778.761 694.273,778.574 697.403,778.672C700.509,778.739 703.769,779.315 706.711,780.175C707.458,780.384 708.191,780.609 708.899,780.865L710.84,781.539C711.901,781.891 713.026,782.17 714.238,782.399C716.658,782.874 719.424,783.097 722.573,783.79C724.14,784.145 725.8,784.632 727.431,785.381C729.061,786.116 730.642,787.11 732.013,788.274C732.387,788.582 732.63,788.815 732.912,789.069L733.74,789.824L735.346,791.377C736.39,792.435 737.409,793.515 738.383,794.626C740.335,796.849 742.14,799.176 743.814,801.578C750.507,811.205 755.129,821.891 758.527,832.784C761.903,843.703 764.018,854.9 765.273,866.136C767.733,888.632 766.796,911.271 763.697,933.484C762.917,939.04 761.997,944.573 760.947,950.079C760.422,952.832 759.859,955.577 759.276,958.317L758.366,962.419L757.891,964.465L757.654,965.488L757.594,965.744L757.565,965.872L757.55,965.935C756.003,969.322 757.095,966.908 756.738,967.68L756.378,968.155C752.55,973.249 747.337,977.283 741.451,979.716C739.974,980.312 738.468,980.832 736.929,981.243C736.545,981.349 736.156,981.432 735.77,981.526L735.189,981.662L734.674,981.771L732.641,982.197L724.508,983.904L728.269,979.532C728.024,984.163 726.662,988.773 724.462,992.767C722.272,996.779 719.372,1000.21 716.212,1003.14C709.844,1009 702.575,1013.12 695.242,1016.62C693.406,1017.48 691.545,1018.31 689.703,1019.1L684.241,1021.4C680.594,1022.93 676.929,1024.41 673.261,1025.88C665.92,1028.82 658.526,1031.62 651.087,1034.3C647.366,1035.64 643.634,1036.94 639.891,1038.22L637.118,1039.16C636.246,1039.48 635.368,1039.76 634.502,1040.11C632.763,1040.77 631.033,1041.48 629.317,1042.24C622.454,1045.3 615.761,1048.99 609.224,1053.02C602.686,1057.07 596.272,1061.41 589.835,1065.85C586.614,1068.07 583.387,1070.32 580.076,1072.55C578.412,1073.66 576.73,1074.77 574.97,1075.85C573.198,1076.93 571.389,1077.99 569.245,1078.98L568.874,1079.15L568.517,1079.25C564.301,1080.42 560.127,1081.28 555.977,1082.05C551.826,1082.8 547.701,1083.47 543.597,1084.07C535.398,1085.28 527.248,1086.35 519.363,1087.91C518.374,1088.1 517.393,1088.3 516.425,1088.53C515.453,1088.74 514.476,1088.95 513.529,1089.2C511.691,1089.65 509.585,1090.28 507.172,1090.68C505.97,1090.88 504.683,1090.98 503.313,1090.95C501.948,1090.91 500.477,1090.73 499.034,1090.21C497.577,1089.68 496.247,1088.92 495.084,1087.93C493.92,1086.93 492.999,1085.69 492.338,1084.45C491.666,1083.21 491.259,1081.94 490.976,1080.74C490.688,1079.54 490.54,1078.38 490.453,1077.26C490.266,1075.02 490.313,1072.92 490.323,1070.88C490.331,1068.85 490.339,1066.88 490.081,1064.94C489.852,1063.01 489.275,1061.12 488.087,1059.33" style="fill-rule:nonzero;fill:white;"/>
        <path d="M491.625,1078.4C498.215,1072.61 504.903,1067.06 511.64,1061.61C515.045,1058.92 518.435,1056.24 521.888,1053.63C525.286,1050.96 528.774,1048.41 532.244,1045.85C533.967,1044.55 535.759,1043.35 537.504,1042.08C539.259,1040.83 540.983,1039.54 542.77,1038.33C546.321,1035.88 549.836,1033.4 553.439,1031.04C557.002,1028.62 560.64,1026.32 564.252,1023.98C566.057,1022.81 567.917,1021.73 569.742,1020.59C571.571,1019.46 573.387,1018.31 575.256,1017.24C582.638,1012.83 590.202,1008.73 597.895,1004.91L603.714,1002.14C605.661,1001.23 607.66,1000.44 609.63,999.582C613.574,997.879 617.601,996.376 621.598,994.805C629.598,991.694 637.596,988.475 645.037,984.182C645.953,983.624 646.898,983.112 647.779,982.501L650.437,980.69C651.318,980.08 652.218,979.496 653.084,978.866L655.578,976.835L658.07,974.804C658.865,974.086 659.62,973.324 660.397,972.586L662.712,970.357C663.489,969.618 664.153,968.771 664.874,967.979C670.572,961.579 675.3,954.349 679.034,946.659C682.779,938.97 685.523,930.806 687.25,922.447C688.959,914.084 689.657,905.532 689.381,897.038C689.094,888.555 687.757,880.096 685.953,871.768C684.133,863.44 681.725,855.248 678.856,847.242C676.013,839.226 672.613,831.423 668.777,823.875L665.763,818.293C664.771,816.427 663.625,814.651 662.563,812.83C661.507,811.003 660.31,809.27 659.143,807.521L657.393,804.9L655.527,802.367C650.585,795.605 645.046,789.318 638.875,783.906L645.422,777.084C657.803,790.191 666.765,805.539 673.947,821.408C677.453,829.399 680.402,837.592 682.973,845.881C685.523,854.177 687.589,862.614 689.051,871.154C690.511,879.681 691.655,888.297 691.644,897.001C691.651,905.681 690.618,914.337 688.656,922.757C686.739,931.189 683.799,939.387 679.865,947.071C675.942,954.756 671.034,961.942 665.181,968.258C664.443,969.041 663.777,969.893 662.99,970.628L660.649,972.853C659.864,973.588 659.101,974.348 658.298,975.064L655.781,977.086L653.266,979.109C652.392,979.735 651.484,980.316 650.596,980.922L647.917,982.721C647.029,983.329 646.078,983.836 645.156,984.39C637.667,988.644 629.643,991.811 621.623,994.87C613.577,997.877 605.596,1001.09 597.938,1004.99C596.001,1005.92 594.141,1007 592.24,1008L589.403,1009.52L586.614,1011.13C584.762,1012.22 582.887,1013.26 581.055,1014.38L575.599,1017.8C568.358,1022.41 561.293,1027.29 554.446,1032.46C547.561,1037.57 540.896,1042.98 534.415,1048.58C521.462,1059.77 509.184,1071.81 498.452,1084.94L491.625,1078.4L491.625,1078.4Z" style="fill-rule:nonzero;fill:white;"/>
        <path d="M690.048,788.045C696.27,793.85 701.777,800.424 706.754,807.375C711.677,814.368 715.988,821.806 719.685,829.542C723.413,837.266 726.476,845.306 729.058,853.492C731.591,861.695 733.59,870.066 735.058,878.532C737.943,895.469 738.772,912.787 737.261,929.933C736.5,938.503 735.215,947.033 733.302,955.431C731.313,963.807 728.811,972.082 725.481,980.032L721.615,978.519C724.462,970.638 726.809,962.576 728.492,954.366C730.25,946.174 731.462,937.861 732.127,929.502C733.451,912.786 732.916,895.896 730.366,879.291C729.115,870.986 727.378,862.749 725.112,854.653C722.894,846.544 720.094,838.595 716.817,830.84C713.508,823.101 709.669,815.57 705.211,808.397C700.81,801.184 695.7,794.398 690.048,788.045" style="fill-rule:nonzero;fill:white;"/>
        <path d="M964.009,381.474C986.007,384.781 1005.75,400.341 1014.11,420.955C1017.43,429.151 1026.35,453.301 1031.79,460.271C1037.23,467.242 1048.41,470.977 1054.89,464.955" style="fill:none;fill-rule:nonzero;stroke:white;stroke-width:9.46px;"/>
        <path d="M1027.71,449.916C1028.68,463.441 1028.54,482.07 1029.5,495.596" style="fill:none;fill-rule:nonzero;stroke:white;stroke-width:4.73px;"/>
        <path d="M1636.02,1123.34C1647.26,1119.65 1658.54,1116.34 1669.74,1112.81C1675.34,1111.07 1680.9,1109.22 1686.43,1107.26C1691.93,1105.24 1697.52,1103.38 1702.88,1101.04C1705.56,1099.86 1708.17,1098.54 1710.72,1097.08C1713.25,1095.6 1715.7,1094 1718.08,1092.28C1722.85,1088.86 1727.36,1085.09 1731.74,1081.18C1733.91,1079.22 1735.93,1077.07 1737.65,1074.69C1738.11,1074.12 1738.53,1073.51 1738.94,1072.9C1739.35,1072.3 1739.78,1071.7 1740.17,1071.08C1740.93,1069.83 1741.75,1068.61 1742.44,1067.32C1745.34,1062.21 1747.76,1056.85 1749.83,1051.36C1751.92,1045.88 1753.59,1040.24 1754.85,1034.52C1756.09,1028.79 1756.97,1022.99 1757.47,1017.15C1758.49,1005.47 1757.66,993.744 1756.61,982.074C1756.34,979.157 1756.07,976.221 1755.69,973.349C1755.32,970.466 1754.77,967.61 1754.14,964.779C1752.86,959.12 1750.94,953.617 1748.45,948.421C1745.96,943.226 1742.89,938.332 1739.21,933.984C1735.55,929.621 1731.21,925.878 1726.43,922.954L1729.02,918.998C1739.08,926.111 1746.44,936.257 1751.04,947.264C1753.34,952.78 1755.04,958.516 1756.18,964.343C1756.73,967.262 1757.18,970.195 1757.46,973.146C1757.74,976.107 1757.9,979.026 1758.08,981.96C1758.87,993.673 1759.32,1005.5 1758.12,1017.22C1757.53,1023.07 1756.55,1028.88 1755.23,1034.61C1753.88,1040.33 1752.08,1045.94 1749.99,1051.42C1747.89,1056.91 1745.44,1062.27 1742.51,1067.36C1741.81,1068.65 1740.99,1069.87 1740.22,1071.12C1739.82,1071.73 1739.39,1072.33 1738.98,1072.93C1738.57,1073.54 1738.14,1074.14 1737.68,1074.71C1735.96,1077.09 1733.91,1079.21 1731.74,1081.19C1727.4,1085.14 1722.92,1088.94 1718.17,1092.4C1715.81,1094.15 1713.34,1095.75 1710.86,1097.32C1708.34,1098.84 1705.75,1100.24 1703.08,1101.49C1692.3,1106.19 1681.36,1110.44 1670.36,1114.61C1659.36,1118.75 1648.37,1122.89 1637.74,1127.74L1636.02,1123.34Z" style="fill-rule:nonzero;fill:white;"/>
        <path d="M1640.9,625.52C1637.02,629.638 1634,634.464 1631.74,639.63C1629.51,644.809 1627.98,650.305 1626.97,655.921C1624.9,667.17 1624.66,678.765 1624.36,690.439L1623.84,707.96C1623.6,713.799 1623.42,719.639 1623.11,725.476C1622.52,737.15 1621.8,748.821 1620.6,760.479L1619.36,760.446C1618.79,748.74 1618.7,737.048 1618.74,725.358C1618.73,719.514 1618.87,713.672 1618.94,707.829L1619.36,690.305C1619.66,678.645 1620.02,666.754 1622.46,655.03C1623.71,649.193 1625.46,643.386 1628.14,637.955C1630.77,632.52 1634.36,627.479 1638.82,623.398L1640.9,625.52Z" style="fill-rule:nonzero;fill:white;"/>
        <path d="M1411.27,434.824C1413.97,437.223 1415.91,440.237 1417.19,443.218C1418.51,446.216 1419.26,449.212 1419.85,452.105C1420.42,455.02 1420.8,457.762 1421.25,460.517C1421.67,463.279 1422.07,466.044 1422.45,468.813C1423.2,474.328 1423.85,479.954 1424.4,485.411C1424.72,488.072 1425.1,490.72 1425.59,493.31C1426.07,495.894 1426.66,498.438 1427.42,500.747C1427.63,501.306 1427.82,501.875 1428.04,502.384C1428.14,502.656 1428.26,502.895 1428.37,503.129L1428.54,503.487L1428.66,503.712C1428.99,504.26 1429.4,504.66 1429.9,504.954C1430.89,505.547 1432.36,505.609 1433.57,505.034C1433.88,504.894 1434.17,504.719 1434.43,504.51C1434.72,504.282 1434.88,504.144 1435.36,503.581L1436.6,502.184L1437.7,500.694C1439.1,498.66 1440.25,496.51 1441.2,494.261C1442.17,492.019 1443.07,489.755 1443.89,487.379C1444.28,486.179 1444.68,484.986 1445,483.737C1445.36,482.51 1445.68,481.249 1445.99,479.977C1447.23,474.889 1448.16,469.53 1449.37,464.145L1458.74,465.382C1458.48,470.962 1457.92,476.582 1456.83,482.318C1456.3,485.181 1455.56,488.073 1454.64,490.945C1453.74,493.831 1452.47,496.672 1450.9,499.346C1449.34,502.038 1447.36,504.476 1445.34,506.791L1443.8,508.502L1442.21,510.146C1441.77,510.614 1440.94,511.448 1440.12,512.047C1439.28,512.671 1438.37,513.204 1437.41,513.628C1433.59,515.337 1428.9,515.229 1425.13,512.945C1423.25,511.821 1421.68,510.166 1420.63,508.311L1420.27,507.622L1420,507.038C1419.81,506.648 1419.64,506.259 1419.5,505.883C1419.18,505.116 1418.93,504.374 1418.68,503.627C1417.74,500.669 1417.12,497.799 1416.61,494.941C1416.11,492.086 1415.73,489.25 1415.43,486.411C1414.85,480.859 1414.22,475.49 1413.47,470.039C1413.1,467.325 1412.7,464.615 1412.28,461.908C1411.86,459.198 1411.41,456.466 1410.88,453.958C1409.83,448.918 1408.09,444.42 1405.09,441.978L1411.27,434.824Z" style="fill-rule:nonzero;fill:white;"/>
        <path d="M1451.09,482.617C1451.49,494.943 1437.87,525.606 1431.12,535.901" style="fill:none;fill-rule:nonzero;stroke:white;stroke-width:9.46px;"/>
        <path d="M1424.43,505.599C1421.36,513.848 1418.79,520.154 1417.56,527.873" style="fill:none;fill-rule:nonzero;stroke:white;stroke-width:3.55px;"/>
        <path d="M1715.07,1016.03C1717.16,1001.2 1716.52,985.908 1712.71,971.566C1711.73,967.993 1710.58,964.48 1709.15,961.1C1707.73,957.724 1706.08,954.451 1704.03,951.484C1702.02,948.513 1699.68,945.756 1696.9,943.666C1695.55,942.562 1694.03,941.735 1692.49,941.003C1690.92,940.314 1689.28,939.867 1687.61,939.587C1685.92,939.394 1684.22,939.362 1682.53,939.599C1680.85,939.882 1679.16,940.261 1677.56,940.952C1674.31,942.206 1671.36,944.287 1668.65,946.618C1663.24,951.359 1658.98,957.435 1655.43,963.827C1648.43,976.743 1644.26,991.174 1642.24,1005.78C1640.26,1020.4 1640.49,1035.4 1643.68,1049.67C1645.36,1056.76 1647.81,1063.73 1651.68,1069.69C1653.61,1072.65 1655.85,1075.42 1658.55,1077.52C1659.86,1078.63 1661.34,1079.46 1662.84,1080.21C1664.37,1080.91 1665.97,1081.39 1667.62,1081.7C1669.27,1081.93 1670.96,1082 1672.65,1081.8C1674.32,1081.55 1676.01,1081.21 1677.63,1080.55C1680.89,1079.35 1683.94,1077.4 1686.74,1075.12C1689.54,1072.84 1692.06,1070.16 1694.36,1067.3C1696.67,1064.44 1698.78,1061.38 1700.69,1058.2C1708.29,1045.42 1712.99,1030.86 1715.07,1016.03M1715.07,1016.03C1714.03,1023.45 1712.49,1030.81 1710.42,1038.03C1708.34,1045.24 1705.73,1052.33 1702.3,1059.09C1698.85,1065.82 1694.59,1072.28 1688.85,1077.55C1688.12,1078.19 1687.41,1078.86 1686.63,1079.45C1686.24,1079.75 1685.86,1080.06 1685.47,1080.35L1684.26,1081.2C1683.47,1081.79 1682.58,1082.25 1681.74,1082.77C1680.84,1083.21 1679.98,1083.71 1679.04,1084.07C1677.2,1084.89 1675.21,1085.4 1673.2,1085.77C1671.17,1086.09 1669.09,1086.1 1667.03,1085.89C1664.97,1085.6 1662.94,1085.09 1661.04,1084.26C1659.16,1083.4 1657.34,1082.4 1655.74,1081.14C1654.9,1080.55 1654.18,1079.84 1653.41,1079.18C1652.72,1078.45 1651.95,1077.78 1651.33,1077L1650.34,1075.87C1650.03,1075.48 1649.74,1075.08 1649.43,1074.69C1648.81,1073.91 1648.27,1073.08 1647.72,1072.26C1645.56,1068.95 1643.87,1065.41 1642.48,1061.79C1641.09,1058.17 1640,1054.46 1639.14,1050.72C1637.44,1043.22 1636.64,1035.58 1636.51,1027.96C1636.46,1024.14 1636.56,1020.33 1636.8,1016.53C1637.07,1012.74 1637.48,1008.95 1638.01,1005.19C1640.2,990.158 1644.57,975.337 1651.96,961.907C1655.72,955.254 1660.23,948.878 1666.15,943.743C1669.12,941.21 1672.41,938.942 1676.16,937.463C1678.01,936.672 1680,936.199 1682.01,935.87C1684.03,935.584 1686.1,935.61 1688.13,935.85C1690.16,936.18 1692.15,936.717 1694.02,937.557C1695.86,938.431 1697.64,939.438 1699.19,940.711C1700.01,941.298 1700.71,942.014 1701.46,942.677C1702.13,943.405 1702.87,944.081 1703.48,944.856L1704.42,945.991C1704.73,946.377 1705.01,946.778 1705.3,947.171C1705.9,947.949 1706.42,948.775 1706.95,949.594C1711.05,956.237 1713.4,963.64 1714.85,971.074C1716.27,978.534 1716.77,986.091 1716.75,993.603C1716.68,1001.12 1716.13,1008.61 1715.07,1016.03" style="fill-rule:nonzero;fill:white;"/>
        <path d="M1685.43,937.373L1719.75,946.847C1734.82,964.078 1740.43,973.347 1740.31,996.377C1740.18,1023.24 1737.68,1048.34 1718.39,1070.23C1703.98,1086.59 1691.78,1088 1690.27,1088.71L1659.07,1081.81" style="fill:none;fill-rule:nonzero;stroke:white;stroke-width:4.73px;"/>
        <path d="M746.948,1378.66C782.969,1357.51 829.909,1371.21 864.653,1394.4C899.395,1417.6 928.161,1449.53 965.122,1468.99C989.189,1481.66 1016.82,1496.9 1091.16,1514.43" style="fill:none;fill-rule:nonzero;stroke:white;stroke-width:4.73px;"/>
        <path d="M747.61,1470.18C746.782,1467.38 746.786,1464.44 747.45,1461.75C748.113,1459.06 749.32,1456.57 750.972,1454.44C754.297,1450.1 759.252,1447.55 764.227,1446.42C766.733,1445.85 769.282,1445.62 771.813,1445.62C773.081,1445.6 774.332,1445.75 775.584,1445.86L777.46,1446.03L779.31,1446.37C784.25,1447.25 788.961,1449.02 793.397,1451.21C802.268,1455.69 809.924,1461.97 817.493,1468.17C825.027,1474.44 832.46,1480.86 840.743,1486.12C844.834,1488.82 849.046,1491.33 853.354,1493.67C855.493,1494.86 857.682,1495.96 859.865,1497.08C862.077,1498.13 864.279,1499.21 866.522,1500.19C875.443,1504.26 884.656,1507.65 894.001,1510.58C898.657,1512.1 903.397,1513.3 908.106,1514.76C912.794,1516.24 917.504,1517.97 921.76,1520.73C923.873,1522.09 925.883,1523.74 927.575,1525.72C929.264,1527.68 930.658,1529.91 931.667,1532.34C932.687,1534.76 933.329,1537.41 933.316,1540.17C933.322,1542.92 932.685,1545.79 931.248,1548.31L927.266,1545.76C928.459,1544.14 929.219,1542.15 929.438,1540.01C929.663,1537.87 929.385,1535.6 928.689,1533.44C927.992,1531.28 926.925,1529.2 925.562,1527.33C924.219,1525.45 922.494,1523.84 920.579,1522.42C916.762,1519.58 912.296,1517.56 907.711,1515.93C905.419,1515.1 903.093,1514.33 900.767,1513.55L893.802,1511.17C889.164,1509.58 884.567,1507.86 880.021,1506.02C875.457,1504.23 870.938,1502.33 866.491,1500.26C862.037,1498.22 857.652,1496.02 853.334,1493.7C849.011,1491.39 844.78,1488.91 840.67,1486.24C832.381,1480.98 824.784,1474.73 817.138,1468.61C813.309,1465.56 809.443,1462.55 805.405,1459.8C801.373,1457.05 797.208,1454.48 792.798,1452.45C788.397,1450.42 783.738,1448.98 778.995,1448.33L777.219,1448.08L775.427,1448C774.235,1447.95 773.042,1447.86 771.859,1447.93C769.49,1448.04 767.143,1448.4 764.901,1449.05C760.436,1450.32 756.302,1452.85 753.893,1456.55C751.419,1460.2 750.577,1464.94 752.086,1468.66L747.61,1470.18Z" style="fill-rule:nonzero;fill:white;"/>
        <path d="M578.532,1067.31C611.77,1165.37 650.062,1252.25 701.334,1336.06C712.89,1354.95 725.577,1377 718.285,1397.91" style="fill:none;fill-rule:nonzero;stroke:white;stroke-width:2.36px;"/>
        <path d="M720.291,1381.49C728.042,1380.76 733.118,1380.28 740.869,1379.55" style="fill:none;fill-rule:nonzero;stroke:white;stroke-width:2.36px;"/>
        <path d="M675.623,628.552C732.379,545.553 807.016,474.846 892.961,422.659" style="fill:none;fill-rule:nonzero;stroke:white;stroke-width:4.73px;"/>
        <path d="M944.982,391.613C955.87,389.409 967.333,393.442 976.109,400.251C984.886,407.059 991.338,416.4 996.985,425.966C1007.52,443.816 1022.92,475.662 1028.61,495.595" style="fill:none;fill-rule:nonzero;stroke:white;stroke-width:3.55px;"/>
        <path d="M840.282,670.369C973.815,553.826 1213.9,470.203 1451.88,596.832C1531.65,639.281 1577.75,698.953 1604.34,811.991C1625.03,899.954 1624.01,991.428 1616.95,1081.52C1609.63,1174.97 1596.64,1279.98 1524.36,1339.67C1349.95,1483.72 1047.71,1396.44 903.836,1286.74" style="fill:none;fill-rule:nonzero;stroke:white;stroke-width:4.73px;"/>
        <path d="M1401.9,444.89C1409.17,455.191 1409.01,468.498 1409.98,480.581C1411.06,494.022 1412.14,507.462 1413.21,520.903C1413.37,522.885 1416.5,522.888 1416.32,520.903C1414.97,506.151 1413.62,491.399 1412.27,476.648C1411.23,465.317 1410.72,453.323 1403.81,443.771C1402.99,442.63 1401.07,443.718 1401.9,444.89" style="fill-rule:nonzero;fill:white;"/>
        <path d="M777.373,1003.59C807.259,1000.15 837.855,999.745 868.572,1002.11C899.295,1004.48 930.131,1009.59 960.655,1017.03C991.185,1024.46 1021.41,1034.2 1051.07,1045.83C1080.74,1057.45 1109.87,1070.96 1138.31,1086.02C1112.69,1066.54 1085.94,1048.32 1058,1031.69C1030.07,1015.08 1000.95,1000.07 970.631,987.168C940.315,974.274 908.784,963.498 876.184,955.51C843.595,947.522 809.924,942.344 775.666,940.652L775.141,940.622C773.498,940.552 771.83,940.61 770.145,940.804C766.515,941.222 763.104,942.246 759.991,943.753C762.15,962.051 765.524,982.542 769.774,1003.55C772.244,1003.86 774.789,1003.89 777.373,1003.59" style="fill-rule:nonzero;fill:white;"/>
        <path d="M818.379,1121.86C868.219,1103.42 922.378,1093.51 977.529,1092.86C1032.68,1092.2 1088.89,1100.78 1142.82,1119.23C1093.47,1090.71 1038.29,1070.5 980.458,1059.83C922.633,1049.16 862.07,1047.98 801.976,1057.61L801.357,1057.7C799.31,1058.04 797.266,1058.58 795.248,1059.33C791.211,1060.82 787.644,1063.02 784.617,1065.72C790.412,1086.64 796.765,1106.31 803.302,1122.89C803.42,1123.19 803.539,1123.49 803.657,1123.79C808.497,1124.25 813.514,1123.66 818.379,1121.86" style="fill-rule:nonzero;fill:white;"/>
        <path d="M883.807,1265.7C880.137,1261.58 876.521,1257.36 872.959,1253.04C866.794,1245.58 861.073,1237.8 855.711,1229.78" style="fill-rule:nonzero;fill:white;"/>
        <path d="M921.381,1255.31C975.48,1198.95 1048.84,1155.74 1131.61,1135.67C1046.59,1130.74 956.763,1150.28 876.148,1195.08L875.16,1195.62C871.973,1197.41 868.991,1199.69 866.327,1202.47C859.003,1210.1 855.482,1219.98 855.712,1229.79C861.073,1237.8 866.795,1245.58 872.96,1253.05C876.522,1257.36 880.137,1261.58 883.808,1265.7C896.846,1269.25 911.365,1265.75 921.381,1255.31" style="fill-rule:nonzero;fill:white;"/>
        <path d="M758.748,943.675C763.958,999.518 782.727,1070.71 803.301,1122.89" style="fill:none;fill-rule:nonzero;stroke:white;stroke-width:9.46px;"/>
        <path d="M1621.37,959.425C1616.29,958.281 1610.84,958.474 1605.55,960.266L1604.81,960.517C1570.18,972.238 1538.3,989.226 1510.23,1010.08C1482.16,1030.93 1457.86,1055.68 1438.4,1082.99C1491.29,1041.73 1554.94,1019.48 1615.96,1017.38C1617.53,1017.31 1619.14,1017.11 1620.75,1016.79C1621.45,997.661 1621.7,978.525 1621.37,959.425" style="fill-rule:nonzero;fill:white;"/>
        <path d="M1619.23,1048.58C1613.03,1045.73 1605.88,1044.82 1598.72,1046.48C1584.42,1049.8 1569.72,1053.12 1554.97,1057.02C1540.22,1060.91 1525.4,1065.38 1510.98,1070.95C1496.54,1076.51 1482.56,1083.19 1469.61,1091.26C1456.66,1099.32 1444.77,1108.8 1434.82,1119.6C1447.93,1112.98 1461.67,1108.58 1475.5,1105.8C1489.33,1103.02 1503.28,1101.83 1517.16,1101.7C1531.07,1101.57 1544.98,1102.48 1559.01,1103.9C1573.04,1105.31 1587.22,1107.23 1601.77,1109.14C1605.41,1109.61 1609.32,1109.47 1613.11,1108.59C1613.64,1108.47 1614.17,1108.33 1614.69,1108.18C1615.52,1099.23 1616.26,1090.32 1616.95,1081.52C1617.81,1070.56 1618.58,1059.57 1619.23,1048.58" style="fill-rule:nonzero;fill:white;"/>
        <path d="M1524.42,1151.1L1518.7,1150.04L1512.96,1149.18C1509.16,1148.57 1505.3,1148.25 1501.51,1147.82C1493.87,1147.18 1486.28,1146.75 1478.73,1146.87C1463.72,1146.92 1448.49,1148.45 1434.56,1152.94C1449.17,1153.54 1462.96,1157.15 1476.26,1161.95C1482.91,1164.27 1489.36,1167.06 1495.64,1169.97C1498.75,1171.54 1501.87,1172.97 1504.88,1174.67L1509.39,1177.13L1513.81,1179.76C1525.53,1186.73 1536.27,1194.92 1546.04,1203.73C1555.79,1212.58 1564.4,1222.31 1571.9,1232.44C1574.03,1235.31 1576.76,1237.95 1579.92,1240.01C1582.58,1241.75 1585.42,1243.03 1588.32,1243.87C1595.45,1224.12 1600.72,1203.31 1604.76,1182.06C1593.41,1175.23 1581.73,1169.34 1569.77,1164.51C1554.88,1158.56 1539.72,1153.97 1524.42,1151.1" style="fill-rule:nonzero;fill:white;"/>
    </g>
    <defs>
        <linearGradient id="_Linear1" x1="0" y1="0" x2="1" y2="0" gradientUnits="userSpaceOnUse" gradientTransform="matrix(1804.76,783.55,-783.55,1804.76,118.189,592.676)"><stop offset="0" style="stop-color:rgb(39,160,216);stop-opacity:1"/><stop offset="0.52" style="stop-color:rgb(117,134,208);stop-opacity:1"/><stop offset="1" style="stop-color:rgb(145,124,205);stop-opacity:1"/></linearGradient>
        <linearGradient id="_Linear2" x1="0" y1="0" x2="1" y2="0" gradientUnits="userSpaceOnUse" gradientTransform="matrix(1804.76,783.55,-783.55,1804.76,118.189,592.676)"><stop offset="0" style="stop-color:rgb(39,160,216);stop-opacity:1"/><stop offset="0.52" style="stop-color:rgb(117,134,208);stop-opacity:1"/><stop offset="1" style="stop-color:rgb(145,124,205);stop-opacity:1"/></linearGradient>
        <linearGradient id="_Linear3" x1="0" y1="0" x2="1" y2="0" gradientUnits="userSpaceOnUse" gradientTransform="matrix(1804.76,783.55,-783.55,1804.76,118.189,592.676)"><stop offset="0" style="stop-color:rgb(39,160,216);stop-opacity:1"/><stop offset="0.52" style="stop-color:rgb(117,134,208);stop-opacity:1"/><stop offset="1" style="stop-color:rgb(145,124,205);stop-opacity:1"/></linearGradient>
        <linearGradient id="_Linear4" x1="0" y1="0" x2="1" y2="0" gradientUnits="userSpaceOnUse" gradientTransform="matrix(1804.76,783.55,-783.55,1804.76,118.189,592.676)"><stop offset="0" style="stop-color:rgb(39,160,216);stop-opacity:1"/><stop offset="0.52" style="stop-color:rgb(117,134,208);stop-opacity:1"/><stop offset="1" style="stop-color:rgb(145,124,205);stop-opacity:1"/></linearGradient>
        <linearGradient id="_Linear5" x1="0" y1="0" x2="1" y2="0" gradientUnits="userSpaceOnUse" gradientTransform="matrix(1804.76,783.55,-783.55,1804.76,118.189,592.676)"><stop offset="0" style="stop-color:rgb(39,160,216);stop-opacity:1"/><stop offset="0.52" style="stop-color:rgb(117,134,208);stop-opacity:1"/><stop offset="1" style="stop-color:rgb(145,124,205);stop-opacity:1"/></linearGradient>
        <linearGradient id="_Linear6" x1="0" y1="0" x2="1" y2="0" gradientUnits="userSpaceOnUse" gradientTransform="matrix(1802.11,782.317,-787.177,1790.98,120.404,597.502)"><stop offset="0" style="stop-color:rgb(39,160,216);stop-opacity:1"/><stop offset="0.52" style="stop-color:rgb(117,134,208);stop-opacity:1"/><stop offset="1" style="stop-color:rgb(145,124,205);stop-opacity:1"/></linearGradient>
    </defs>
</svg>
